M48
; DRILL file {KiCad 7.0.10-7.0.10~ubuntu22.04.1} date Mon 08 Jan 2024 13:24:10 CET
; FORMAT={-:-/ absolute / metric / decimal}
; #@! TF.CreationDate,2024-01-08T13:24:10+01:00
; #@! TF.GenerationSoftware,Kicad,Pcbnew,7.0.10-7.0.10~ubuntu22.04.1
; #@! TF.FileFunction,Plated,1,2,PTH
FMAT,2
METRIC
; #@! TA.AperFunction,Plated,PTH,ViaDrill
T1C0.400
; #@! TA.AperFunction,Plated,PTH,ComponentDrill
T2C0.400
; #@! TA.AperFunction,Plated,PTH,ComponentDrill
T3C0.500
; #@! TA.AperFunction,Plated,PTH,ComponentDrill
T4C0.650
; #@! TA.AperFunction,Plated,PTH,ComponentDrill
T5C0.800
; #@! TA.AperFunction,Plated,PTH,ComponentDrill
T6C0.810
; #@! TA.AperFunction,Plated,PTH,ComponentDrill
T7C0.900
; #@! TA.AperFunction,Plated,PTH,ComponentDrill
T8C1.000
; #@! TA.AperFunction,Plated,PTH,ComponentDrill
T9C1.100
; #@! TA.AperFunction,Plated,PTH,ComponentDrill
T10C1.200
; #@! TA.AperFunction,Plated,PTH,ComponentDrill
T11C3.200
%
G90
G05
T1
X95.2Y-54.6
X96.3Y-66.95
X97.7Y-72.5
X98.8Y-61.8
X99.0Y-66.0
X103.13Y-65.37
X104.227Y-70.823
X106.9Y-66.2
X108.5Y-53.3
X117.75Y-71.8
X121.0Y-50.8
X122.4Y-55.0
X123.125Y-77.8
X128.075Y-72.675
T3
X113.7Y-57.5
X113.7Y-58.5
X113.7Y-59.5
X113.7Y-60.5
X113.7Y-61.5
X113.7Y-62.5
X113.7Y-63.5
X113.7Y-64.5
X113.7Y-65.5
X113.7Y-66.5
X113.7Y-67.5
X113.7Y-68.5
X113.7Y-69.5
X113.7Y-70.5
X113.7Y-71.5
T4
X116.4Y-57.33
X116.4Y-58.6
X116.4Y-59.87
X116.4Y-61.14
X116.4Y-62.41
X116.4Y-63.68
X116.4Y-64.95
X116.4Y-66.22
X116.4Y-67.49
X116.4Y-68.76
X116.4Y-70.03
X116.4Y-71.3
T5
X85.5Y-145.5
X86.0Y-138.0
X86.75Y-145.5
X87.25Y-138.0
X89.25Y-145.5
X90.5Y-145.5
X94.75Y-138.0
X96.0Y-138.0
X101.0Y-145.5
X102.25Y-145.5
X104.75Y-145.5
X106.0Y-145.5
X107.5Y-138.0
X108.75Y-138.0
X110.403Y-77.1
X110.605Y-53.1
X113.105Y-53.1
X115.403Y-77.1
X116.25Y-138.0
X116.5Y-145.5
X117.5Y-138.0
X117.75Y-145.5
X120.25Y-145.5
X121.5Y-145.5
X128.75Y-138.0
X130.0Y-138.0
X132.0Y-145.5
X133.25Y-145.5
X135.0Y-138.0
X135.75Y-145.5
X136.25Y-138.0
X137.0Y-145.5
X147.5Y-138.0
X148.25Y-145.5
X148.75Y-138.0
X149.5Y-145.5
X153.75Y-138.0
X155.0Y-138.0
X157.0Y-145.5
X158.25Y-145.5
X166.0Y-138.0
X167.25Y-138.0
X168.9Y-145.5
X170.15Y-145.5
X172.25Y-138.0
X172.65Y-145.5
X173.5Y-138.0
X173.9Y-145.5
T6
X96.4Y-56.4
X96.4Y-61.4
X96.4Y-70.9
X96.4Y-75.9
X106.4Y-56.4
X106.4Y-61.4
X106.4Y-70.9
X106.4Y-75.9
T7
X92.17Y-88.5
X92.17Y-106.75
X102.33Y-88.5
X102.33Y-106.75
X105.67Y-88.5
X105.67Y-106.75
X115.83Y-88.5
X115.83Y-106.75
T8
X82.25Y-113.0
X82.25Y-117.25
X82.25Y-121.5
X82.25Y-129.75
X82.25Y-138.0
X82.25Y-145.5
X85.5Y-88.25
X85.5Y-107.0
X86.6Y-65.8
X89.2Y-88.25
X89.5Y-63.5
X89.5Y-68.5
X91.0Y-92.5
X91.0Y-102.5
X91.0Y-113.0
X91.0Y-117.25
X91.0Y-121.5
X93.75Y-145.5
X95.5Y-117.25
X97.75Y-145.5
X99.75Y-138.0
X103.75Y-138.0
X109.25Y-145.5
X110.6Y-57.925
X110.6Y-60.465
X110.6Y-63.005
X110.6Y-65.545
X110.6Y-68.085
X112.0Y-129.75
X113.25Y-145.5
X116.0Y-129.75
X118.25Y-92.5
X118.25Y-102.5
X119.0Y-88.25
X119.035Y-77.1
X119.8Y-54.0
X119.8Y-56.54
X119.8Y-59.08
X119.8Y-61.62
X119.8Y-64.16
X119.8Y-66.7
X119.8Y-69.24
X121.25Y-138.0
X121.575Y-77.1
X121.75Y-107.0
X124.75Y-145.5
X125.0Y-88.25
X125.25Y-138.0
X128.75Y-145.5
X129.0Y-88.25
X133.5Y-117.25
X135.0Y-54.0
X135.0Y-78.0
X138.0Y-129.75
X138.75Y-54.0
X139.75Y-138.0
X140.25Y-145.5
X141.5Y-107.0
X142.25Y-129.75
X143.5Y-54.0
X144.0Y-138.0
X144.5Y-145.5
X145.25Y-114.75
X145.25Y-120.5
X147.5Y-78.0
X147.5Y-107.0
X149.0Y-88.25
X151.5Y-54.0
X155.25Y-114.75
X155.25Y-120.5
X158.5Y-138.0
X159.25Y-88.25
X160.0Y-114.75
X160.25Y-54.0
X162.0Y-78.0
X162.0Y-145.5
X162.5Y-138.0
X163.0Y-88.25
X163.225Y-119.5
X164.25Y-129.75
X165.5Y-107.0
X165.75Y-145.5
X165.765Y-119.5
X168.0Y-54.0
X168.305Y-119.5
X170.0Y-114.75
X171.75Y-54.0
X171.75Y-88.25
X175.5Y-54.0
X175.5Y-78.0
X177.0Y-138.0
X177.0Y-145.5
T9
X88.0Y-51.5
X88.0Y-58.0
X88.0Y-73.6
X88.0Y-80.1
X92.5Y-51.5
X92.5Y-58.0
X92.5Y-73.6
X92.5Y-80.1
X93.25Y-129.75
X108.25Y-129.75
X119.5Y-129.75
X134.5Y-129.75
X145.75Y-129.75
X160.75Y-129.75
T10
X85.75Y-129.75
X100.75Y-117.25
X105.75Y-117.25
X108.25Y-129.75
X128.25Y-117.25
X128.25Y-117.25
X135.5Y-94.237
X135.5Y-101.737
X147.0Y-62.487
X147.0Y-69.987
X153.5Y-94.237
X153.5Y-101.737
X163.9Y-62.487
X163.9Y-69.987
T11
X85.5Y-97.5
X105.5Y-97.5
X112.5Y-97.5
X123.5Y-97.5
X135.25Y-66.0
X140.0Y-117.5
X165.5Y-97.5
X175.75Y-66.0
T2
G00X84.5Y-65.3
M15
G01X84.5Y-66.3
M16
G05
G00X90.0Y-60.8
M15
G01X89.0Y-60.8
M16
G05
G00X89.0Y-70.8
M15
G01X90.0Y-70.8
M16
G05
M30
