%TF.GenerationSoftware,KiCad,Pcbnew,7.0.10-7.0.10~ubuntu22.04.1*%
%TF.CreationDate,2024-01-08T13:23:45+01:00*%
%TF.ProjectId,reparaturhelfer,72657061-7261-4747-9572-68656c666572,rev?*%
%TF.SameCoordinates,Original*%
%TF.FileFunction,Copper,L1,Top*%
%TF.FilePolarity,Positive*%
%FSLAX46Y46*%
G04 Gerber Fmt 4.6, Leading zero omitted, Abs format (unit mm)*
G04 Created by KiCad (PCBNEW 7.0.10-7.0.10~ubuntu22.04.1) date 2024-01-08 13:23:45*
%MOMM*%
%LPD*%
G01*
G04 APERTURE LIST*
%TA.AperFunction,ComponentPad*%
%ADD10R,1.700000X1.700000*%
%TD*%
%TA.AperFunction,ComponentPad*%
%ADD11C,2.200000*%
%TD*%
%TA.AperFunction,ComponentPad*%
%ADD12R,1.000000X1.000000*%
%TD*%
%TA.AperFunction,ComponentPad*%
%ADD13O,1.000000X1.000000*%
%TD*%
%TA.AperFunction,ComponentPad*%
%ADD14C,6.400000*%
%TD*%
%TA.AperFunction,ComponentPad*%
%ADD15R,2.400000X2.400000*%
%TD*%
%TA.AperFunction,ComponentPad*%
%ADD16C,2.400000*%
%TD*%
%TA.AperFunction,ComponentPad*%
%ADD17C,1.600000*%
%TD*%
%TA.AperFunction,ComponentPad*%
%ADD18C,2.000000*%
%TD*%
%TA.AperFunction,ComponentPad*%
%ADD19R,1.800000X1.800000*%
%TD*%
%TA.AperFunction,ComponentPad*%
%ADD20O,1.800000X1.800000*%
%TD*%
%TA.AperFunction,ComponentPad*%
%ADD21R,1.600000X1.600000*%
%TD*%
%TA.AperFunction,ComponentPad*%
%ADD22O,2.200000X1.200000*%
%TD*%
%TA.AperFunction,ComponentPad*%
%ADD23O,1.200000X2.200000*%
%TD*%
%TA.AperFunction,ComponentPad*%
%ADD24O,1.700000X1.700000*%
%TD*%
%TA.AperFunction,ComponentPad*%
%ADD25R,1.520000X1.520000*%
%TD*%
%TA.AperFunction,ComponentPad*%
%ADD26C,1.520000*%
%TD*%
%TA.AperFunction,ComponentPad*%
%ADD27R,0.850000X0.850000*%
%TD*%
%TA.AperFunction,ComponentPad*%
%ADD28O,0.850000X0.850000*%
%TD*%
%TA.AperFunction,ViaPad*%
%ADD29C,0.900000*%
%TD*%
%TA.AperFunction,Conductor*%
%ADD30C,0.500000*%
%TD*%
%TA.AperFunction,Conductor*%
%ADD31C,1.000000*%
%TD*%
%TA.AperFunction,Conductor*%
%ADD32C,1.500000*%
%TD*%
G04 APERTURE END LIST*
D10*
%TO.P,J422,1,Pin_1*%
%TO.N,Net-(J422-Pin_1)*%
X124750000Y-145500000D03*
%TD*%
D11*
%TO.P,C414,2*%
%TO.N,Net-(J428-Pin_1)*%
X108250000Y-129750000D03*
%TO.P,C414,1*%
%TO.N,Net-(J427-Pin_1)*%
X93250000Y-129750000D03*
%TD*%
D10*
%TO.P,J433,1,Pin_1*%
%TO.N,Net-(J433-Pin_1)*%
X95500000Y-117250000D03*
%TD*%
%TO.P,J311,1,Pin_1*%
%TO.N,Net-(J311-Pin_1)*%
X143500000Y-54000000D03*
%TD*%
%TO.P,J435,1,Pin_1*%
%TO.N,Net-(J435-Pin_1)*%
X162500000Y-138000000D03*
%TD*%
D11*
%TO.P,C410,1*%
%TO.N,Net-(J419-Pin_1)*%
X145750000Y-129750000D03*
%TO.P,C410,2*%
%TO.N,Net-(J420-Pin_1)*%
X160750000Y-129750000D03*
%TD*%
D10*
%TO.P,J304,1,Pin_1*%
%TO.N,Net-(J303-Pin_1)*%
X149000000Y-88250000D03*
%TD*%
%TO.P,J325,1,Pin_1*%
%TO.N,/Power Supply/gnd_b*%
X162000000Y-78000000D03*
%TD*%
%TO.P,J305,1,Pin_1*%
%TO.N,Net-(J303-Pin_1)*%
X171750000Y-88250000D03*
%TD*%
D12*
%TO.P,J202,1,Pin_1*%
%TO.N,unconnected-(J202-Pin_1-Pad1)*%
X116400000Y-57330000D03*
D13*
%TO.P,J202,2,Pin_2*%
%TO.N,unconnected-(J202-Pin_2-Pad2)*%
X116400000Y-58600000D03*
%TO.P,J202,3,Pin_3*%
%TO.N,unconnected-(J202-Pin_3-Pad3)*%
X116400000Y-59870000D03*
%TO.P,J202,4,Pin_4*%
%TO.N,unconnected-(J202-Pin_4-Pad4)*%
X116400000Y-61140000D03*
%TO.P,J202,5,Pin_5*%
%TO.N,unconnected-(J202-Pin_5-Pad5)*%
X116400000Y-62410000D03*
%TO.P,J202,6,Pin_6*%
%TO.N,unconnected-(J202-Pin_6-Pad6)*%
X116400000Y-63680000D03*
%TO.P,J202,7,Pin_7*%
%TO.N,unconnected-(J202-Pin_7-Pad7)*%
X116400000Y-64950000D03*
%TO.P,J202,8,Pin_8*%
%TO.N,unconnected-(J202-Pin_8-Pad8)*%
X116400000Y-66220000D03*
%TO.P,J202,9,Pin_9*%
%TO.N,unconnected-(J202-Pin_9-Pad9)*%
X116400000Y-67490000D03*
%TO.P,J202,10,Pin_10*%
%TO.N,unconnected-(J202-Pin_10-Pad10)*%
X116400000Y-68760000D03*
%TO.P,J202,11,Pin_11*%
%TO.N,unconnected-(J202-Pin_11-Pad11)*%
X116400000Y-70030000D03*
%TO.P,J202,12,Pin_12*%
%TO.N,unconnected-(J202-Pin_12-Pad12)*%
X116400000Y-71300000D03*
%TD*%
D14*
%TO.P,H304,1,1*%
%TO.N,/Power Supply/gnd_b*%
X135250000Y-66000000D03*
%TD*%
D15*
%TO.P,C305,1*%
%TO.N,Net-(J311-Pin_1)*%
X147000000Y-62487246D03*
D16*
%TO.P,C305,2*%
%TO.N,/Power Supply/gnd_b*%
X147000000Y-69987246D03*
%TD*%
D17*
%TO.P,C409,1*%
%TO.N,Net-(J417-Pin_1)*%
X101000000Y-145500000D03*
X102250000Y-145500000D03*
%TO.P,C409,2*%
%TO.N,Net-(J418-Pin_1)*%
X104750000Y-145500000D03*
X106000000Y-145500000D03*
%TD*%
D10*
%TO.P,J403,1,Pin_1*%
%TO.N,Net-(J403-Pin_1)*%
X82250000Y-138000000D03*
%TD*%
%TO.P,J416,1,Pin_1*%
%TO.N,Net-(J416-Pin_1)*%
X138000000Y-129750000D03*
%TD*%
D15*
%TO.P,C303,1*%
%TO.N,Net-(J303-Pin_1)*%
X135500000Y-94237246D03*
D16*
%TO.P,C303,2*%
%TO.N,/Power Supply/gnd_a*%
X135500000Y-101737246D03*
%TD*%
D10*
%TO.P,J432,1,Pin_1*%
%TO.N,Net-(J432-Pin_1)*%
X158500000Y-138000000D03*
%TD*%
D17*
%TO.P,C415,1*%
%TO.N,Net-(J429-Pin_1)*%
X128750000Y-138000000D03*
X130000000Y-138000000D03*
%TO.P,C415,2*%
%TO.N,Net-(J430-Pin_1)*%
X135000000Y-138000000D03*
X136250000Y-138000000D03*
%TD*%
D18*
%TO.P,C501,1*%
%TO.N,Net-(J501-Pin_1)*%
X155250000Y-114750000D03*
%TO.P,C501,2*%
%TO.N,Earth*%
X145250000Y-114750000D03*
%TD*%
D19*
%TO.P,D304,1,K*%
%TO.N,Net-(D302-A)*%
X102330000Y-106750000D03*
D20*
%TO.P,D304,2,A*%
%TO.N,/Power Supply/gnd_a*%
X92170000Y-106750000D03*
%TD*%
D14*
%TO.P,H303,1,1*%
%TO.N,/Power Supply/gnd_a*%
X112500000Y-97500000D03*
%TD*%
D17*
%TO.P,C419,1*%
%TO.N,Net-(J435-Pin_1)*%
X166000000Y-138000000D03*
X167250000Y-138000000D03*
%TO.P,C419,2*%
%TO.N,Net-(J436-Pin_1)*%
X172250000Y-138000000D03*
X173500000Y-138000000D03*
%TD*%
D18*
%TO.P,SW202,1,1*%
%TO.N,unconnected-(SW202-Pad1)*%
X88000000Y-80100000D03*
X88000000Y-73600000D03*
%TO.P,SW202,2,2*%
%TO.N,unconnected-(SW202-Pad2)*%
X92500000Y-80100000D03*
X92500000Y-73600000D03*
%TD*%
%TO.P,SW201,1,1*%
%TO.N,unconnected-(SW201-Pad1)*%
X88000000Y-58000000D03*
X88000000Y-51500000D03*
%TO.P,SW201,2,2*%
%TO.N,unconnected-(SW201-Pad2)*%
X92500000Y-58000000D03*
X92500000Y-51500000D03*
%TD*%
D16*
%TO.P,C420,1*%
%TO.N,Net-(J433-Pin_1)*%
X100750000Y-117250000D03*
%TO.P,C420,2*%
%TO.N,Net-(J434-Pin_1)*%
X128250000Y-117250000D03*
%TD*%
D14*
%TO.P,H501,1,1*%
%TO.N,Earth*%
X140000000Y-117500000D03*
%TD*%
D10*
%TO.P,J302,1,Pin_1*%
%TO.N,Net-(D301-K)*%
X119000000Y-88250000D03*
%TD*%
%TO.P,J428,1,Pin_1*%
%TO.N,Net-(J428-Pin_1)*%
X112000000Y-129750000D03*
%TD*%
%TO.P,J417,1,Pin_1*%
%TO.N,Net-(J417-Pin_1)*%
X97750000Y-145500000D03*
%TD*%
%TO.P,J411,1,Pin_1*%
%TO.N,Net-(J411-Pin_1)*%
X144500000Y-145500000D03*
%TD*%
%TO.P,J314,1,Pin_1*%
%TO.N,Net-(J311-Pin_1)*%
X168000000Y-54000000D03*
%TD*%
%TO.P,J320,1,Pin_1*%
%TO.N,/Power Supply/gnd_a*%
X141500000Y-107000000D03*
%TD*%
%TO.P,J415,1,Pin_1*%
%TO.N,Net-(J415-Pin_1)*%
X116000000Y-129750000D03*
%TD*%
%TO.P,J316,1,Pin_1*%
%TO.N,Net-(J315-Pin_1)*%
X175500000Y-54000000D03*
%TD*%
%TO.P,J307,1,Pin_1*%
%TO.N,Net-(J307-Pin_1)*%
X163000000Y-88250000D03*
%TD*%
%TO.P,J409,1,Pin_1*%
%TO.N,Net-(J409-Pin_1)*%
X82250000Y-121500000D03*
%TD*%
D19*
%TO.P,D303,1,K*%
%TO.N,Net-(D301-A)*%
X102330000Y-88500000D03*
D20*
%TO.P,D303,2,A*%
%TO.N,/Power Supply/gnd_a*%
X92170000Y-88500000D03*
%TD*%
D10*
%TO.P,J405,1,Pin_1*%
%TO.N,Net-(J405-Pin_1)*%
X82250000Y-117250000D03*
%TD*%
%TO.P,J410,1,Pin_1*%
%TO.N,Net-(J410-Pin_1)*%
X91000000Y-121500000D03*
%TD*%
D19*
%TO.P,D301,1,K*%
%TO.N,Net-(D301-K)*%
X115830000Y-88500000D03*
D20*
%TO.P,D301,2,A*%
%TO.N,Net-(D301-A)*%
X105670000Y-88500000D03*
%TD*%
D10*
%TO.P,J426,1,Pin_1*%
%TO.N,Net-(J426-Pin_1)*%
X140250000Y-145500000D03*
%TD*%
D21*
%TO.P,C211,1*%
%TO.N,+5V*%
X113105112Y-53100000D03*
D17*
%TO.P,C211,2*%
%TO.N,GND*%
X110605112Y-53100000D03*
%TD*%
%TO.P,C407,1*%
%TO.N,Net-(J413-Pin_1)*%
X85500000Y-145500000D03*
X86750000Y-145500000D03*
%TO.P,C407,2*%
%TO.N,Net-(J414-Pin_1)*%
X89250000Y-145500000D03*
X90500000Y-145500000D03*
%TD*%
D10*
%TO.P,J318,1,Pin_1*%
%TO.N,Net-(D302-A)*%
X85500000Y-107000000D03*
%TD*%
D22*
%TO.P,J206,R*%
%TO.N,/Bluetooth/audio_rechts*%
X89500000Y-60800000D03*
D23*
%TO.P,J206,S*%
%TO.N,/Bluetooth/audio_gnd*%
X84500000Y-65800000D03*
D22*
%TO.P,J206,T*%
%TO.N,/Bluetooth/audio_links*%
X89500000Y-70800000D03*
%TD*%
D10*
%TO.P,J429,1,Pin_1*%
%TO.N,Net-(J429-Pin_1)*%
X125250000Y-138000000D03*
%TD*%
%TO.P,J401,1,Pin_1*%
%TO.N,Net-(J401-Pin_1)*%
X82250000Y-113000000D03*
%TD*%
D17*
%TO.P,C412,2*%
%TO.N,Net-(J424-Pin_1)*%
X173900000Y-145500000D03*
X172650000Y-145500000D03*
%TO.P,C412,1*%
%TO.N,Net-(J423-Pin_1)*%
X170150000Y-145500000D03*
X168900000Y-145500000D03*
%TD*%
%TO.P,C406,1*%
%TO.N,Net-(J411-Pin_1)*%
X148250000Y-145500000D03*
X149500000Y-145500000D03*
%TO.P,C406,2*%
%TO.N,Net-(J412-Pin_1)*%
X157000000Y-145500000D03*
X158250000Y-145500000D03*
%TD*%
D21*
%TO.P,C204,1*%
%TO.N,+8V*%
X115402651Y-77100000D03*
D17*
%TO.P,C204,2*%
%TO.N,GND*%
X110402651Y-77100000D03*
%TD*%
D10*
%TO.P,J412,1,Pin_1*%
%TO.N,Net-(J412-Pin_1)*%
X162000000Y-145500000D03*
%TD*%
%TO.P,J425,1,Pin_1*%
%TO.N,Net-(J425-Pin_1)*%
X128750000Y-145500000D03*
%TD*%
%TO.P,J310,1,Pin_1*%
%TO.N,Net-(J309-Pin_1)*%
X135000000Y-54000000D03*
%TD*%
%TO.P,J326,1,Pin_1*%
%TO.N,/Power Supply/gnd_b*%
X175500000Y-78000000D03*
%TD*%
%TO.P,J308,1,Pin_1*%
%TO.N,Net-(J307-Pin_1)*%
X159250000Y-88250000D03*
%TD*%
D17*
%TO.P,C402,1*%
%TO.N,Net-(J403-Pin_1)*%
X86000000Y-138000000D03*
X87250000Y-138000000D03*
%TO.P,C402,2*%
%TO.N,Net-(J404-Pin_1)*%
X94750000Y-138000000D03*
X96000000Y-138000000D03*
%TD*%
%TO.P,C404,1*%
%TO.N,Net-(J407-Pin_1)*%
X107500000Y-138000000D03*
X108750000Y-138000000D03*
%TO.P,C404,2*%
%TO.N,Net-(J408-Pin_1)*%
X116250000Y-138000000D03*
X117500000Y-138000000D03*
%TD*%
D10*
%TO.P,J208,1,Pin_1*%
%TO.N,/Bluetooth/audio_rechts*%
X89500000Y-63500000D03*
%TD*%
%TO.P,J419,1,Pin_1*%
%TO.N,Net-(J419-Pin_1)*%
X142250000Y-129750000D03*
%TD*%
%TO.P,J209,1,Pin_1*%
%TO.N,/Bluetooth/audio_gnd*%
X86600000Y-65800000D03*
%TD*%
D14*
%TO.P,H302,1,1*%
%TO.N,/Power Supply/gnd_a*%
X105500000Y-97500000D03*
%TD*%
D10*
%TO.P,J418,1,Pin_1*%
%TO.N,Net-(J418-Pin_1)*%
X109250000Y-145500000D03*
%TD*%
%TO.P,J312,1,Pin_1*%
%TO.N,Net-(J311-Pin_1)*%
X151500000Y-54000000D03*
%TD*%
D14*
%TO.P,H305,1,1*%
%TO.N,/Power Supply/gnd_a*%
X123500000Y-97500000D03*
%TD*%
D10*
%TO.P,J413,1,Pin_1*%
%TO.N,Net-(J413-Pin_1)*%
X82250000Y-145500000D03*
%TD*%
%TO.P,J313,1,Pin_1*%
%TO.N,Net-(J311-Pin_1)*%
X160250000Y-54000000D03*
%TD*%
D18*
%TO.P,C301,1*%
%TO.N,Net-(D301-A)*%
X91000000Y-92500000D03*
%TO.P,C301,2*%
%TO.N,Net-(D302-A)*%
X91000000Y-102500000D03*
%TD*%
D10*
%TO.P,J324,1,Pin_1*%
%TO.N,/Power Supply/gnd_b*%
X147500000Y-78000000D03*
%TD*%
%TO.P,J406,1,Pin_1*%
%TO.N,Net-(J406-Pin_1)*%
X91000000Y-117250000D03*
%TD*%
%TO.P,J431,1,Pin_1*%
%TO.N,Net-(J431-Pin_1)*%
X144000000Y-138000000D03*
%TD*%
D11*
%TO.P,C408,1*%
%TO.N,Net-(J415-Pin_1)*%
X119500000Y-129750000D03*
%TO.P,C408,2*%
%TO.N,Net-(J416-Pin_1)*%
X134500000Y-129750000D03*
%TD*%
D17*
%TO.P,C417,1*%
%TO.N,Net-(J431-Pin_1)*%
X147500000Y-138000000D03*
X148750000Y-138000000D03*
%TO.P,C417,2*%
%TO.N,Net-(J432-Pin_1)*%
X153750000Y-138000000D03*
X155000000Y-138000000D03*
%TD*%
D10*
%TO.P,J204,1,Pin_1*%
%TO.N,unconnected-(J204-Pin_1-Pad1)*%
X119800000Y-54000000D03*
D24*
%TO.P,J204,2,Pin_2*%
%TO.N,unconnected-(J204-Pin_2-Pad2)*%
X119800000Y-56540000D03*
%TO.P,J204,3,Pin_3*%
%TO.N,unconnected-(J204-Pin_3-Pad3)*%
X119800000Y-59080000D03*
%TO.P,J204,4,Pin_4*%
%TO.N,unconnected-(J204-Pin_4-Pad4)*%
X119800000Y-61620000D03*
%TO.P,J204,5,Pin_5*%
%TO.N,unconnected-(J204-Pin_5-Pad5)*%
X119800000Y-64160000D03*
%TO.P,J204,6,Pin_6*%
%TO.N,unconnected-(J204-Pin_6-Pad6)*%
X119800000Y-66700000D03*
%TO.P,J204,7,Pin_7*%
%TO.N,unconnected-(J204-Pin_7-Pad7)*%
X119800000Y-69240000D03*
%TD*%
D25*
%TO.P,T202,1,AA*%
%TO.N,/Bluetooth/amp_rechts*%
X106400000Y-70900000D03*
D26*
%TO.P,T202,2,AB*%
%TO.N,GND*%
X106400000Y-75900000D03*
%TO.P,T202,3,SA*%
%TO.N,/Bluetooth/audio_gnd*%
X96400000Y-75900000D03*
%TO.P,T202,4,SB*%
%TO.N,/Bluetooth/audio_rechts*%
X96400000Y-70900000D03*
%TD*%
D18*
%TO.P,C502,1*%
%TO.N,Net-(J501-Pin_1)*%
X160000000Y-114750000D03*
%TO.P,C502,2*%
%TO.N,Net-(J501-Pin_3)*%
X170000000Y-114750000D03*
%TD*%
D10*
%TO.P,J321,1,Pin_1*%
%TO.N,/Power Supply/gnd_a*%
X147500000Y-107000000D03*
%TD*%
D25*
%TO.P,T201,1,AA*%
%TO.N,Net-(T201-AA)*%
X106400000Y-56400000D03*
D26*
%TO.P,T201,2,AB*%
%TO.N,GND*%
X106400000Y-61400000D03*
%TO.P,T201,3,SA*%
%TO.N,/Bluetooth/audio_gnd*%
X96400000Y-61400000D03*
%TO.P,T201,4,SB*%
%TO.N,/Bluetooth/audio_links*%
X96400000Y-56400000D03*
%TD*%
D10*
%TO.P,J427,1,Pin_1*%
%TO.N,Net-(J427-Pin_1)*%
X82250000Y-129750000D03*
%TD*%
%TO.P,J436,1,Pin_1*%
%TO.N,Net-(J436-Pin_1)*%
X177000000Y-138000000D03*
%TD*%
D17*
%TO.P,C411,1*%
%TO.N,Net-(J421-Pin_1)*%
X116500000Y-145500000D03*
X117750000Y-145500000D03*
%TO.P,C411,2*%
%TO.N,Net-(J422-Pin_1)*%
X120250000Y-145500000D03*
X121500000Y-145500000D03*
%TD*%
D18*
%TO.P,C302,1*%
%TO.N,Net-(D301-K)*%
X118250000Y-92500000D03*
%TO.P,C302,2*%
%TO.N,/Power Supply/gnd_a*%
X118250000Y-102500000D03*
%TD*%
D10*
%TO.P,J317,1,Pin_1*%
%TO.N,Net-(D301-A)*%
X85500000Y-88250000D03*
%TD*%
%TO.P,J309,1,Pin_1*%
%TO.N,Net-(J309-Pin_1)*%
X138750000Y-54000000D03*
%TD*%
%TO.P,J301,1,Pin_1*%
%TO.N,Net-(D301-K)*%
X89200000Y-88250000D03*
%TD*%
%TO.P,J404,1,Pin_1*%
%TO.N,Net-(J404-Pin_1)*%
X99750000Y-138000000D03*
%TD*%
D27*
%TO.P,J203,1,Pin_1*%
%TO.N,unconnected-(J203-Pin_1-Pad1)*%
X113700000Y-57500000D03*
D28*
%TO.P,J203,2,Pin_2*%
%TO.N,unconnected-(J203-Pin_2-Pad2)*%
X113700000Y-58500000D03*
%TO.P,J203,3,Pin_3*%
%TO.N,unconnected-(J203-Pin_3-Pad3)*%
X113700000Y-59500000D03*
%TO.P,J203,4,Pin_4*%
%TO.N,unconnected-(J203-Pin_4-Pad4)*%
X113700000Y-60500000D03*
%TO.P,J203,5,Pin_5*%
%TO.N,unconnected-(J203-Pin_5-Pad5)*%
X113700000Y-61500000D03*
%TO.P,J203,6,Pin_6*%
%TO.N,unconnected-(J203-Pin_6-Pad6)*%
X113700000Y-62500000D03*
%TO.P,J203,7,Pin_7*%
%TO.N,unconnected-(J203-Pin_7-Pad7)*%
X113700000Y-63500000D03*
%TO.P,J203,8,Pin_8*%
%TO.N,unconnected-(J203-Pin_8-Pad8)*%
X113700000Y-64500000D03*
%TO.P,J203,9,Pin_9*%
%TO.N,unconnected-(J203-Pin_9-Pad9)*%
X113700000Y-65500000D03*
%TO.P,J203,10,Pin_10*%
%TO.N,unconnected-(J203-Pin_10-Pad10)*%
X113700000Y-66500000D03*
%TO.P,J203,11,Pin_11*%
%TO.N,unconnected-(J203-Pin_11-Pad11)*%
X113700000Y-67500000D03*
%TO.P,J203,12,Pin_12*%
%TO.N,unconnected-(J203-Pin_12-Pad12)*%
X113700000Y-68500000D03*
%TO.P,J203,13,Pin_13*%
%TO.N,unconnected-(J203-Pin_13-Pad13)*%
X113700000Y-69500000D03*
%TO.P,J203,14,Pin_14*%
%TO.N,unconnected-(J203-Pin_14-Pad14)*%
X113700000Y-70500000D03*
%TO.P,J203,15,Pin_15*%
%TO.N,unconnected-(J203-Pin_15-Pad15)*%
X113700000Y-71500000D03*
%TD*%
D10*
%TO.P,J207,1,Pin_1*%
%TO.N,/Bluetooth/audio_links*%
X89500000Y-68500000D03*
%TD*%
%TO.P,J501,1,Pin_1*%
%TO.N,Net-(J501-Pin_1)*%
X163225000Y-119500000D03*
D24*
%TO.P,J501,2,Pin_2*%
%TO.N,unconnected-(J501-Pin_2-Pad2)*%
X165765000Y-119500000D03*
%TO.P,J501,3,Pin_3*%
%TO.N,Net-(J501-Pin_3)*%
X168305000Y-119500000D03*
%TD*%
D10*
%TO.P,J424,1,Pin_1*%
%TO.N,Net-(J424-Pin_1)*%
X177000000Y-145500000D03*
%TD*%
%TO.P,J205,1,Pin_1*%
%TO.N,+5V*%
X110600000Y-57925000D03*
D24*
%TO.P,J205,2,Pin_2*%
%TO.N,GND*%
X110600000Y-60465000D03*
%TO.P,J205,3,Pin_3*%
X110600000Y-63005000D03*
%TO.P,J205,4,Pin_4*%
%TO.N,Net-(J205-Pin_4)*%
X110600000Y-65545000D03*
%TO.P,J205,5,Pin_5*%
%TO.N,Net-(J205-Pin_5)*%
X110600000Y-68085000D03*
%TD*%
D16*
%TO.P,C418,1*%
%TO.N,Net-(J433-Pin_1)*%
X105750000Y-117250000D03*
%TO.P,C418,2*%
%TO.N,Net-(J434-Pin_1)*%
X128250000Y-117250000D03*
%TD*%
D14*
%TO.P,H307,1,1*%
%TO.N,/Power Supply/gnd_a*%
X165500000Y-97500000D03*
%TD*%
D10*
%TO.P,J306,1,Pin_1*%
%TO.N,Net-(J303-Pin_1)*%
X129000000Y-88250000D03*
%TD*%
%TO.P,J420,1,Pin_1*%
%TO.N,Net-(J420-Pin_1)*%
X164250000Y-129750000D03*
%TD*%
D16*
%TO.P,C416,1*%
%TO.N,Net-(J427-Pin_1)*%
X85750000Y-129750000D03*
%TO.P,C416,2*%
%TO.N,Net-(J428-Pin_1)*%
X108250000Y-129750000D03*
%TD*%
D10*
%TO.P,J323,1,Pin_1*%
%TO.N,/Power Supply/gnd_b*%
X135000000Y-78000000D03*
%TD*%
%TO.P,J430,1,Pin_1*%
%TO.N,Net-(J430-Pin_1)*%
X139750000Y-138000000D03*
%TD*%
%TO.P,J414,1,Pin_1*%
%TO.N,Net-(J414-Pin_1)*%
X93750000Y-145500000D03*
%TD*%
D14*
%TO.P,H301,1,1*%
%TO.N,/Power Supply/gnd_a*%
X85500000Y-97500000D03*
%TD*%
D10*
%TO.P,J319,1,Pin_1*%
%TO.N,/Power Supply/gnd_a*%
X121750000Y-107000000D03*
%TD*%
%TO.P,J201,1,Pin_1*%
%TO.N,6\u002C3V_AC*%
X121575000Y-77100000D03*
D24*
%TO.P,J201,2,Pin_2*%
%TO.N,Earth*%
X119035000Y-77100000D03*
%TD*%
D10*
%TO.P,J303,1,Pin_1*%
%TO.N,Net-(J303-Pin_1)*%
X125000000Y-88250000D03*
%TD*%
%TO.P,J402,1,Pin_1*%
%TO.N,Net-(J402-Pin_1)*%
X91000000Y-113000000D03*
%TD*%
D18*
%TO.P,C503,1*%
%TO.N,Net-(J501-Pin_3)*%
X155250000Y-120500000D03*
%TO.P,C503,2*%
%TO.N,Earth*%
X145250000Y-120500000D03*
%TD*%
D15*
%TO.P,C306,1*%
%TO.N,Net-(J315-Pin_1)*%
X163900000Y-62487246D03*
D16*
%TO.P,C306,2*%
%TO.N,/Power Supply/gnd_b*%
X163900000Y-69987246D03*
%TD*%
D17*
%TO.P,C413,1*%
%TO.N,Net-(J425-Pin_1)*%
X132000000Y-145500000D03*
X133250000Y-145500000D03*
%TO.P,C413,2*%
%TO.N,Net-(J426-Pin_1)*%
X135750000Y-145500000D03*
X137000000Y-145500000D03*
%TD*%
D19*
%TO.P,D302,1,K*%
%TO.N,Net-(D301-K)*%
X115830000Y-106750000D03*
D20*
%TO.P,D302,2,A*%
%TO.N,Net-(D302-A)*%
X105670000Y-106750000D03*
%TD*%
D10*
%TO.P,J408,1,Pin_1*%
%TO.N,Net-(J408-Pin_1)*%
X121250000Y-138000000D03*
%TD*%
%TO.P,J407,1,Pin_1*%
%TO.N,Net-(J407-Pin_1)*%
X103750000Y-138000000D03*
%TD*%
D15*
%TO.P,C304,1*%
%TO.N,Net-(J307-Pin_1)*%
X153500000Y-94237246D03*
D16*
%TO.P,C304,2*%
%TO.N,/Power Supply/gnd_a*%
X153500000Y-101737246D03*
%TD*%
D10*
%TO.P,J423,1,Pin_1*%
%TO.N,Net-(J423-Pin_1)*%
X165750000Y-145500000D03*
%TD*%
%TO.P,J434,1,Pin_1*%
%TO.N,Net-(J434-Pin_1)*%
X133500000Y-117250000D03*
%TD*%
%TO.P,J315,1,Pin_1*%
%TO.N,Net-(J315-Pin_1)*%
X171750000Y-54000000D03*
%TD*%
%TO.P,J322,1,Pin_1*%
%TO.N,/Power Supply/gnd_a*%
X165500000Y-107000000D03*
%TD*%
D14*
%TO.P,H306,1,1*%
%TO.N,/Power Supply/gnd_b*%
X175750000Y-66000000D03*
%TD*%
D10*
%TO.P,J421,1,Pin_1*%
%TO.N,Net-(J421-Pin_1)*%
X113250000Y-145500000D03*
%TD*%
D29*
%TO.N,+8V*%
X121000000Y-50800000D03*
X122400000Y-55000000D03*
%TO.N,+5V*%
X95200000Y-54600000D03*
X97700000Y-72500000D03*
X98800000Y-61800000D03*
X96300000Y-66950000D03*
%TO.N,GND*%
X99000000Y-66000000D03*
X117750000Y-71800000D03*
X106900000Y-66200000D03*
X128075000Y-72675000D03*
X103130000Y-65370000D03*
X108500000Y-53300000D03*
X104226992Y-70823008D03*
%TO.N,+8V*%
X123125000Y-77800000D03*
%TD*%
D30*
%TO.N,+5V*%
X97700000Y-72500000D02*
X97700000Y-68350000D01*
X97700000Y-68350000D02*
X96300000Y-66950000D01*
X96300000Y-66950000D02*
X96300000Y-64300000D01*
X96300000Y-64300000D02*
X98800000Y-61800000D01*
%TO.N,+8V*%
X121000000Y-50800000D02*
X122400000Y-52200000D01*
X122400000Y-52200000D02*
X122400000Y-55000000D01*
%TO.N,+5V*%
X95190000Y-55110000D02*
X95200000Y-55100000D01*
X95200000Y-55100000D02*
X95200000Y-54600000D01*
X95190000Y-58190000D02*
X98800000Y-61800000D01*
X95190000Y-55110000D02*
X95190000Y-58190000D01*
D31*
%TO.N,+8V*%
X122000000Y-79400000D02*
X117702651Y-79400000D01*
X117702651Y-79400000D02*
X115402651Y-77100000D01*
X123125000Y-77800000D02*
X123125000Y-78275000D01*
X123125000Y-78275000D02*
X122000000Y-79400000D01*
D32*
%TO.N,Net-(D301-A)*%
X89750000Y-92500000D02*
X91000000Y-92500000D01*
X102330000Y-88500000D02*
X105670000Y-88500000D01*
X85500000Y-88250000D02*
X89750000Y-92500000D01*
X91000000Y-92500000D02*
X98330000Y-92500000D01*
X98330000Y-92500000D02*
X102330000Y-88500000D01*
%TO.N,Net-(D302-A)*%
X85500000Y-106750000D02*
X86750000Y-106750000D01*
X91000000Y-102500000D02*
X98080000Y-102500000D01*
X102330000Y-106750000D02*
X105670000Y-106750000D01*
X86750000Y-106750000D02*
X91000000Y-102500000D01*
X98080000Y-102500000D02*
X102330000Y-106750000D01*
%TO.N,Net-(D301-K)*%
X116080000Y-88250000D02*
X115830000Y-88500000D01*
X119000000Y-88250000D02*
X119000000Y-91750000D01*
X118250000Y-98750000D02*
X118250000Y-92500000D01*
X115830000Y-101170000D02*
X118250000Y-98750000D01*
X119000000Y-91750000D02*
X118250000Y-92500000D01*
X119000000Y-88250000D02*
X116080000Y-88250000D01*
X115830000Y-106750000D02*
X115830000Y-101170000D01*
%TO.N,Net-(J303-Pin_1)*%
X129500000Y-88250000D02*
X135487246Y-94237246D01*
X165750000Y-91750000D02*
X169250000Y-88250000D01*
X149000000Y-88250000D02*
X153250000Y-88250000D01*
X135512754Y-94237246D02*
X141500000Y-88250000D01*
X169250000Y-88250000D02*
X171750000Y-88250000D01*
X153250000Y-88250000D02*
X156750000Y-91750000D01*
X135500000Y-94237246D02*
X135512754Y-94237246D01*
X135487246Y-94237246D02*
X135500000Y-94237246D01*
X141500000Y-88250000D02*
X149000000Y-88250000D01*
X156750000Y-91750000D02*
X165750000Y-91750000D01*
X125000000Y-88250000D02*
X129500000Y-88250000D01*
D30*
%TO.N,/Bluetooth/audio_gnd*%
X96400000Y-61400000D02*
X90850000Y-66950000D01*
X93950000Y-70050000D02*
X90850000Y-66950000D01*
X87750000Y-66950000D02*
X86600000Y-65800000D01*
X86600000Y-65800000D02*
X84500000Y-65800000D01*
X90850000Y-66950000D02*
X87750000Y-66950000D01*
X93950000Y-73450000D02*
X93950000Y-70050000D01*
X96400000Y-75900000D02*
X93950000Y-73450000D01*
%TO.N,unconnected-(SW201-Pad2)*%
X92500000Y-51500000D02*
X92500000Y-58000000D01*
%TD*%
%TA.AperFunction,Conductor*%
%TO.N,GND*%
G36*
X110850000Y-62569498D02*
G01*
X110742315Y-62520320D01*
X110635763Y-62505000D01*
X110564237Y-62505000D01*
X110457685Y-62520320D01*
X110350000Y-62569498D01*
X110350000Y-60900501D01*
X110457685Y-60949680D01*
X110564237Y-60965000D01*
X110635763Y-60965000D01*
X110742315Y-60949680D01*
X110850000Y-60900501D01*
X110850000Y-62569498D01*
G37*
%TD.AperFunction*%
%TA.AperFunction,Conductor*%
G36*
X86849077Y-50320185D02*
G01*
X86894832Y-50372989D01*
X86904776Y-50442147D01*
X86875751Y-50505703D01*
X86873267Y-50508483D01*
X86811836Y-50575213D01*
X86675826Y-50783393D01*
X86575936Y-51011118D01*
X86514892Y-51252175D01*
X86514890Y-51252187D01*
X86494357Y-51499994D01*
X86494357Y-51500005D01*
X86514890Y-51747812D01*
X86514892Y-51747824D01*
X86575936Y-51988881D01*
X86675826Y-52216606D01*
X86811833Y-52424782D01*
X86811836Y-52424785D01*
X86980256Y-52607738D01*
X87176491Y-52760474D01*
X87285840Y-52819651D01*
X87385139Y-52873389D01*
X87395190Y-52878828D01*
X87630386Y-52959571D01*
X87875665Y-53000500D01*
X88124335Y-53000500D01*
X88369614Y-52959571D01*
X88604810Y-52878828D01*
X88823509Y-52760474D01*
X89019744Y-52607738D01*
X89188164Y-52424785D01*
X89324173Y-52216607D01*
X89424063Y-51988881D01*
X89485108Y-51747821D01*
X89485467Y-51743488D01*
X89505643Y-51500005D01*
X89505643Y-51499994D01*
X89485109Y-51252187D01*
X89485107Y-51252175D01*
X89424063Y-51011118D01*
X89324173Y-50783393D01*
X89188163Y-50575213D01*
X89126733Y-50508483D01*
X89095810Y-50445829D01*
X89103670Y-50376403D01*
X89147817Y-50322247D01*
X89214234Y-50300556D01*
X89217962Y-50300500D01*
X91282038Y-50300500D01*
X91349077Y-50320185D01*
X91394832Y-50372989D01*
X91404776Y-50442147D01*
X91375751Y-50505703D01*
X91373267Y-50508483D01*
X91311836Y-50575213D01*
X91175826Y-50783393D01*
X91075936Y-51011118D01*
X91014892Y-51252175D01*
X91014890Y-51252187D01*
X90994357Y-51499994D01*
X90994357Y-51500005D01*
X91014890Y-51747812D01*
X91014892Y-51747824D01*
X91075936Y-51988881D01*
X91175826Y-52216606D01*
X91311833Y-52424782D01*
X91311836Y-52424785D01*
X91480256Y-52607738D01*
X91676491Y-52760474D01*
X91684513Y-52764815D01*
X91734106Y-52814032D01*
X91749500Y-52873872D01*
X91749500Y-56626128D01*
X91729815Y-56693167D01*
X91684522Y-56735179D01*
X91676491Y-56739526D01*
X91621756Y-56782128D01*
X91480257Y-56892261D01*
X91311833Y-57075217D01*
X91175826Y-57283393D01*
X91075936Y-57511118D01*
X91014892Y-57752175D01*
X91014890Y-57752187D01*
X90994357Y-57999994D01*
X90994357Y-58000005D01*
X91014890Y-58247812D01*
X91014892Y-58247824D01*
X91075936Y-58488881D01*
X91175826Y-58716606D01*
X91311833Y-58924782D01*
X91311836Y-58924785D01*
X91480256Y-59107738D01*
X91676491Y-59260474D01*
X91895190Y-59378828D01*
X92130386Y-59459571D01*
X92375665Y-59500500D01*
X92624335Y-59500500D01*
X92869614Y-59459571D01*
X93104810Y-59378828D01*
X93323509Y-59260474D01*
X93519744Y-59107738D01*
X93688164Y-58924785D01*
X93824173Y-58716607D01*
X93924063Y-58488881D01*
X93985108Y-58247821D01*
X93986277Y-58233711D01*
X94005643Y-58000005D01*
X94005643Y-57999994D01*
X93985109Y-57752187D01*
X93985107Y-57752175D01*
X93924063Y-57511118D01*
X93824173Y-57283393D01*
X93688166Y-57075217D01*
X93648991Y-57032662D01*
X93519744Y-56892262D01*
X93323509Y-56739526D01*
X93315477Y-56735179D01*
X93265891Y-56685961D01*
X93250500Y-56626128D01*
X93250500Y-53100002D01*
X109300146Y-53100002D01*
X109319970Y-53326599D01*
X109319972Y-53326610D01*
X109378842Y-53546317D01*
X109378847Y-53546331D01*
X109474975Y-53752478D01*
X109526086Y-53825472D01*
X110207158Y-53144400D01*
X110219947Y-53225148D01*
X110277471Y-53338045D01*
X110367067Y-53427641D01*
X110479964Y-53485165D01*
X110560711Y-53497953D01*
X109879638Y-54179025D01*
X109952625Y-54230132D01*
X109952633Y-54230136D01*
X110158780Y-54326264D01*
X110158794Y-54326269D01*
X110378501Y-54385139D01*
X110378512Y-54385141D01*
X110605110Y-54404966D01*
X110605114Y-54404966D01*
X110831711Y-54385141D01*
X110831722Y-54385139D01*
X111051429Y-54326269D01*
X111051443Y-54326264D01*
X111257590Y-54230136D01*
X111330583Y-54179024D01*
X110649512Y-53497953D01*
X110730260Y-53485165D01*
X110843157Y-53427641D01*
X110932753Y-53338045D01*
X110990277Y-53225148D01*
X111003065Y-53144400D01*
X111689309Y-53830644D01*
X111738304Y-53840491D01*
X111788487Y-53889106D01*
X111803161Y-53944632D01*
X111804211Y-53944576D01*
X111804258Y-53944571D01*
X111804258Y-53944573D01*
X111804436Y-53944564D01*
X111804613Y-53947876D01*
X111811020Y-54007483D01*
X111861314Y-54142328D01*
X111861318Y-54142335D01*
X111947564Y-54257544D01*
X111947567Y-54257547D01*
X112062776Y-54343793D01*
X112062783Y-54343797D01*
X112197629Y-54394091D01*
X112197628Y-54394091D01*
X112204556Y-54394835D01*
X112257239Y-54400500D01*
X113952984Y-54400499D01*
X114012595Y-54394091D01*
X114147443Y-54343796D01*
X114262658Y-54257546D01*
X114348908Y-54142331D01*
X114399203Y-54007483D01*
X114405612Y-53947873D01*
X114405611Y-52252128D01*
X114399203Y-52192517D01*
X114389773Y-52167235D01*
X114348909Y-52057671D01*
X114348905Y-52057664D01*
X114262659Y-51942455D01*
X114262656Y-51942452D01*
X114147447Y-51856206D01*
X114147440Y-51856202D01*
X114012594Y-51805908D01*
X114012595Y-51805908D01*
X113952995Y-51799501D01*
X113952993Y-51799500D01*
X113952985Y-51799500D01*
X113952976Y-51799500D01*
X112257241Y-51799500D01*
X112257235Y-51799501D01*
X112197628Y-51805908D01*
X112062783Y-51856202D01*
X112062776Y-51856206D01*
X111947567Y-51942452D01*
X111947564Y-51942455D01*
X111861318Y-52057664D01*
X111861314Y-52057671D01*
X111811020Y-52192517D01*
X111805299Y-52245735D01*
X111804613Y-52252123D01*
X111804434Y-52255452D01*
X111802959Y-52255372D01*
X111784927Y-52316784D01*
X111732123Y-52362539D01*
X111688634Y-52370029D01*
X111003065Y-53055598D01*
X110990277Y-52974852D01*
X110932753Y-52861955D01*
X110843157Y-52772359D01*
X110730260Y-52714835D01*
X110649513Y-52702046D01*
X111330584Y-52020974D01*
X111257590Y-51969863D01*
X111051443Y-51873735D01*
X111051429Y-51873730D01*
X110831722Y-51814860D01*
X110831711Y-51814858D01*
X110605114Y-51795034D01*
X110605110Y-51795034D01*
X110378512Y-51814858D01*
X110378501Y-51814860D01*
X110158794Y-51873730D01*
X110158785Y-51873734D01*
X109952628Y-51969866D01*
X109952624Y-51969868D01*
X109879638Y-52020973D01*
X109879638Y-52020974D01*
X110560711Y-52702046D01*
X110479964Y-52714835D01*
X110367067Y-52772359D01*
X110277471Y-52861955D01*
X110219947Y-52974852D01*
X110207158Y-53055598D01*
X109526086Y-52374526D01*
X109526085Y-52374526D01*
X109474980Y-52447512D01*
X109474978Y-52447516D01*
X109378846Y-52653673D01*
X109378842Y-52653682D01*
X109319972Y-52873389D01*
X109319970Y-52873400D01*
X109300146Y-53099997D01*
X109300146Y-53100002D01*
X93250500Y-53100002D01*
X93250500Y-52873872D01*
X93270185Y-52806833D01*
X93315487Y-52764815D01*
X93323509Y-52760474D01*
X93519744Y-52607738D01*
X93688164Y-52424785D01*
X93824173Y-52216607D01*
X93924063Y-51988881D01*
X93985108Y-51747821D01*
X93985467Y-51743488D01*
X94005643Y-51500005D01*
X94005643Y-51499994D01*
X93985109Y-51252187D01*
X93985107Y-51252175D01*
X93924063Y-51011118D01*
X93824173Y-50783393D01*
X93688163Y-50575213D01*
X93626733Y-50508483D01*
X93595810Y-50445829D01*
X93603670Y-50376403D01*
X93647817Y-50322247D01*
X93714234Y-50300556D01*
X93717962Y-50300500D01*
X119991058Y-50300500D01*
X120058097Y-50320185D01*
X120103852Y-50372989D01*
X120113796Y-50442147D01*
X120109718Y-50460496D01*
X120063253Y-50613666D01*
X120063252Y-50613668D01*
X120044901Y-50800000D01*
X120063252Y-50986331D01*
X120063253Y-50986333D01*
X120117604Y-51165502D01*
X120205862Y-51330623D01*
X120205864Y-51330626D01*
X120324642Y-51475357D01*
X120469373Y-51594135D01*
X120469376Y-51594137D01*
X120593225Y-51660335D01*
X120634499Y-51682396D01*
X120739685Y-51714304D01*
X120795867Y-51731347D01*
X120813669Y-51736747D01*
X120837963Y-51739139D01*
X120902750Y-51765297D01*
X120913493Y-51774861D01*
X121613181Y-52474549D01*
X121646666Y-52535872D01*
X121649500Y-52562230D01*
X121649500Y-54371836D01*
X121629815Y-54438875D01*
X121621355Y-54450499D01*
X121605864Y-54469375D01*
X121605860Y-54469381D01*
X121517604Y-54634497D01*
X121463253Y-54813666D01*
X121463252Y-54813668D01*
X121444901Y-55000000D01*
X121463252Y-55186331D01*
X121463253Y-55186333D01*
X121517604Y-55365502D01*
X121605862Y-55530623D01*
X121605864Y-55530626D01*
X121724642Y-55675357D01*
X121869373Y-55794135D01*
X121869376Y-55794137D01*
X121996660Y-55862171D01*
X122034499Y-55882396D01*
X122213666Y-55936746D01*
X122213668Y-55936747D01*
X122230374Y-55938392D01*
X122400000Y-55955099D01*
X122586331Y-55936747D01*
X122765501Y-55882396D01*
X122930625Y-55794136D01*
X123075357Y-55675357D01*
X123194136Y-55530625D01*
X123282396Y-55365501D01*
X123336747Y-55186331D01*
X123355099Y-55000000D01*
X123336747Y-54813669D01*
X123282396Y-54634499D01*
X123194136Y-54469375D01*
X123178645Y-54450499D01*
X123151333Y-54386188D01*
X123150500Y-54371836D01*
X123150500Y-54069594D01*
X124995686Y-54069594D01*
X125026114Y-54346125D01*
X125096478Y-54615272D01*
X125180787Y-54813669D01*
X125205284Y-54871314D01*
X125283820Y-55000000D01*
X125350205Y-55108776D01*
X125350212Y-55108786D01*
X125528161Y-55322616D01*
X125528167Y-55322621D01*
X125648805Y-55430712D01*
X125735357Y-55508263D01*
X125967373Y-55661763D01*
X126219267Y-55779846D01*
X126219274Y-55779848D01*
X126219276Y-55779849D01*
X126485657Y-55859992D01*
X126485664Y-55859993D01*
X126485669Y-55859995D01*
X126760901Y-55900500D01*
X126760906Y-55900500D01*
X126969461Y-55900500D01*
X126969463Y-55900500D01*
X126969467Y-55900499D01*
X126969481Y-55900499D01*
X127016953Y-55897024D01*
X127177455Y-55885277D01*
X127448997Y-55824788D01*
X127708838Y-55725408D01*
X127951440Y-55589253D01*
X128171632Y-55419226D01*
X128192421Y-55397664D01*
X128223429Y-55365502D01*
X128364722Y-55218951D01*
X128526593Y-54992696D01*
X128632693Y-54786331D01*
X128653790Y-54745298D01*
X128653794Y-54745288D01*
X128653797Y-54745283D01*
X128743621Y-54481986D01*
X128794152Y-54208416D01*
X128804313Y-53930404D01*
X128773886Y-53653876D01*
X128703520Y-53384724D01*
X128594716Y-53128686D01*
X128449792Y-52891219D01*
X128434954Y-52873389D01*
X128271838Y-52677383D01*
X128271832Y-52677378D01*
X128064643Y-52491737D01*
X127832629Y-52338238D01*
X127832627Y-52338237D01*
X127580733Y-52220154D01*
X127580728Y-52220152D01*
X127580723Y-52220150D01*
X127314342Y-52140007D01*
X127314328Y-52140004D01*
X127191504Y-52121929D01*
X127039099Y-52099500D01*
X126830537Y-52099500D01*
X126830518Y-52099500D01*
X126622545Y-52114723D01*
X126622535Y-52114724D01*
X126351007Y-52175210D01*
X126350997Y-52175213D01*
X126091161Y-52274592D01*
X125848561Y-52410746D01*
X125848556Y-52410749D01*
X125628369Y-52580772D01*
X125628359Y-52580781D01*
X125435281Y-52781045D01*
X125435274Y-52781053D01*
X125273412Y-53007295D01*
X125273405Y-53007307D01*
X125146209Y-53254701D01*
X125146205Y-53254711D01*
X125056379Y-53518012D01*
X125056378Y-53518018D01*
X125005848Y-53791584D01*
X125005847Y-53791591D01*
X124995686Y-54069594D01*
X123150500Y-54069594D01*
X123150500Y-52263705D01*
X123151809Y-52245735D01*
X123152129Y-52243547D01*
X123155289Y-52221977D01*
X123155129Y-52220150D01*
X123150972Y-52172630D01*
X123150500Y-52161822D01*
X123150500Y-52156296D01*
X123150500Y-52156291D01*
X123146901Y-52125509D01*
X123146536Y-52121929D01*
X123139999Y-52047201D01*
X123138539Y-52040129D01*
X123138597Y-52040116D01*
X123136965Y-52032757D01*
X123136906Y-52032772D01*
X123135242Y-52025753D01*
X123135241Y-52025745D01*
X123109591Y-51955273D01*
X123108408Y-51951868D01*
X123084813Y-51880663D01*
X123081764Y-51874124D01*
X123081817Y-51874099D01*
X123078531Y-51867311D01*
X123078479Y-51867338D01*
X123075236Y-51860882D01*
X123072159Y-51856204D01*
X123058393Y-51835273D01*
X123034025Y-51798222D01*
X123032088Y-51795181D01*
X122992714Y-51731347D01*
X122988234Y-51725681D01*
X122988280Y-51725643D01*
X122983519Y-51719799D01*
X122983474Y-51719838D01*
X122978831Y-51714305D01*
X122924290Y-51662848D01*
X122921703Y-51660335D01*
X121974861Y-50713493D01*
X121941376Y-50652170D01*
X121939139Y-50637962D01*
X121936747Y-50613672D01*
X121936747Y-50613669D01*
X121890281Y-50460495D01*
X121889658Y-50390629D01*
X121926906Y-50331516D01*
X121990200Y-50301925D01*
X122008942Y-50300500D01*
X130076000Y-50300500D01*
X130143039Y-50320185D01*
X130188794Y-50372989D01*
X130200000Y-50424500D01*
X130200000Y-81476000D01*
X130180315Y-81543039D01*
X130127511Y-81588794D01*
X130076000Y-81600000D01*
X93370569Y-81600000D01*
X93303530Y-81580315D01*
X93257775Y-81527511D01*
X93247831Y-81458353D01*
X93276856Y-81394797D01*
X93311552Y-81366945D01*
X93323503Y-81360477D01*
X93323505Y-81360476D01*
X93323504Y-81360476D01*
X93323509Y-81360474D01*
X93519744Y-81207738D01*
X93688164Y-81024785D01*
X93824173Y-80816607D01*
X93924063Y-80588881D01*
X93985108Y-80347821D01*
X93985109Y-80347812D01*
X94005643Y-80100005D01*
X94005643Y-80099994D01*
X93985109Y-79852187D01*
X93985107Y-79852175D01*
X93924063Y-79611118D01*
X93824173Y-79383393D01*
X93688166Y-79175217D01*
X93627007Y-79108781D01*
X93519744Y-78992262D01*
X93323509Y-78839526D01*
X93323507Y-78839525D01*
X93323506Y-78839524D01*
X93104811Y-78721172D01*
X93104802Y-78721169D01*
X92869616Y-78640429D01*
X92624335Y-78599500D01*
X92375665Y-78599500D01*
X92130383Y-78640429D01*
X91895197Y-78721169D01*
X91895188Y-78721172D01*
X91676493Y-78839524D01*
X91560174Y-78930059D01*
X91480256Y-78992262D01*
X91479849Y-78992704D01*
X91311833Y-79175217D01*
X91175826Y-79383393D01*
X91075936Y-79611118D01*
X91014892Y-79852175D01*
X91014890Y-79852187D01*
X90994357Y-80099994D01*
X90994357Y-80100005D01*
X91014890Y-80347812D01*
X91014892Y-80347824D01*
X91075936Y-80588881D01*
X91175826Y-80816606D01*
X91311833Y-81024782D01*
X91311836Y-81024785D01*
X91480256Y-81207738D01*
X91676491Y-81360474D01*
X91676494Y-81360476D01*
X91676496Y-81360477D01*
X91688448Y-81366945D01*
X91738039Y-81416164D01*
X91753147Y-81484381D01*
X91728977Y-81549937D01*
X91673201Y-81592018D01*
X91629431Y-81600000D01*
X88870569Y-81600000D01*
X88803530Y-81580315D01*
X88757775Y-81527511D01*
X88747831Y-81458353D01*
X88776856Y-81394797D01*
X88811552Y-81366945D01*
X88823503Y-81360477D01*
X88823505Y-81360476D01*
X88823504Y-81360476D01*
X88823509Y-81360474D01*
X89019744Y-81207738D01*
X89188164Y-81024785D01*
X89324173Y-80816607D01*
X89424063Y-80588881D01*
X89485108Y-80347821D01*
X89485109Y-80347812D01*
X89505643Y-80100005D01*
X89505643Y-80099994D01*
X89485109Y-79852187D01*
X89485107Y-79852175D01*
X89424063Y-79611118D01*
X89324173Y-79383393D01*
X89188166Y-79175217D01*
X89127007Y-79108781D01*
X89019744Y-78992262D01*
X88823509Y-78839526D01*
X88823507Y-78839525D01*
X88823506Y-78839524D01*
X88604811Y-78721172D01*
X88604802Y-78721169D01*
X88369616Y-78640429D01*
X88124335Y-78599500D01*
X87875665Y-78599500D01*
X87630383Y-78640429D01*
X87395197Y-78721169D01*
X87395188Y-78721172D01*
X87176493Y-78839524D01*
X87060174Y-78930059D01*
X86980256Y-78992262D01*
X86979849Y-78992704D01*
X86811833Y-79175217D01*
X86675826Y-79383393D01*
X86575936Y-79611118D01*
X86514892Y-79852175D01*
X86514890Y-79852187D01*
X86494357Y-80099994D01*
X86494357Y-80100005D01*
X86514890Y-80347812D01*
X86514892Y-80347824D01*
X86575936Y-80588881D01*
X86675826Y-80816606D01*
X86811833Y-81024782D01*
X86811836Y-81024785D01*
X86980256Y-81207738D01*
X87176491Y-81360474D01*
X87176494Y-81360476D01*
X87176496Y-81360477D01*
X87188448Y-81366945D01*
X87238039Y-81416164D01*
X87253147Y-81484381D01*
X87228977Y-81549937D01*
X87173201Y-81592018D01*
X87129431Y-81600000D01*
X80424500Y-81600000D01*
X80357461Y-81580315D01*
X80311706Y-81527511D01*
X80300500Y-81476000D01*
X80300500Y-78069594D01*
X81095686Y-78069594D01*
X81126114Y-78346125D01*
X81196478Y-78615272D01*
X81291775Y-78839526D01*
X81305284Y-78871314D01*
X81450205Y-79108776D01*
X81450212Y-79108786D01*
X81628161Y-79322616D01*
X81628167Y-79322621D01*
X81793918Y-79471133D01*
X81835357Y-79508263D01*
X82067373Y-79661763D01*
X82319267Y-79779846D01*
X82319274Y-79779848D01*
X82319276Y-79779849D01*
X82585657Y-79859992D01*
X82585664Y-79859993D01*
X82585669Y-79859995D01*
X82860901Y-79900500D01*
X82860906Y-79900500D01*
X83069461Y-79900500D01*
X83069463Y-79900500D01*
X83069467Y-79900499D01*
X83069481Y-79900499D01*
X83116953Y-79897024D01*
X83277455Y-79885277D01*
X83548997Y-79824788D01*
X83808838Y-79725408D01*
X84051440Y-79589253D01*
X84271632Y-79419226D01*
X84306180Y-79383393D01*
X84364776Y-79322616D01*
X84464722Y-79218951D01*
X84626593Y-78992696D01*
X84705344Y-78839524D01*
X84753790Y-78745298D01*
X84753794Y-78745288D01*
X84753797Y-78745283D01*
X84843621Y-78481986D01*
X84894152Y-78208416D01*
X84904313Y-77930404D01*
X84873886Y-77653876D01*
X84803520Y-77384724D01*
X84694716Y-77128686D01*
X84549792Y-76891219D01*
X84527628Y-76864586D01*
X84371838Y-76677383D01*
X84371832Y-76677378D01*
X84164643Y-76491737D01*
X83932629Y-76338238D01*
X83932627Y-76338237D01*
X83680733Y-76220154D01*
X83680728Y-76220152D01*
X83680723Y-76220150D01*
X83414342Y-76140007D01*
X83414328Y-76140004D01*
X83276453Y-76119714D01*
X83139099Y-76099500D01*
X82930537Y-76099500D01*
X82930518Y-76099500D01*
X82722545Y-76114723D01*
X82722535Y-76114724D01*
X82451007Y-76175210D01*
X82450997Y-76175213D01*
X82191161Y-76274592D01*
X81948561Y-76410746D01*
X81948556Y-76410749D01*
X81728369Y-76580772D01*
X81728359Y-76580781D01*
X81535281Y-76781045D01*
X81535274Y-76781053D01*
X81373412Y-77007295D01*
X81373405Y-77007307D01*
X81246209Y-77254701D01*
X81246205Y-77254711D01*
X81156379Y-77518012D01*
X81156378Y-77518018D01*
X81105848Y-77791584D01*
X81105847Y-77791591D01*
X81095686Y-78069594D01*
X80300500Y-78069594D01*
X80300500Y-73600005D01*
X86494357Y-73600005D01*
X86514890Y-73847812D01*
X86514892Y-73847824D01*
X86575936Y-74088881D01*
X86675826Y-74316606D01*
X86811833Y-74524782D01*
X86811836Y-74524785D01*
X86980256Y-74707738D01*
X87176491Y-74860474D01*
X87395190Y-74978828D01*
X87630386Y-75059571D01*
X87875665Y-75100500D01*
X88124335Y-75100500D01*
X88369614Y-75059571D01*
X88604810Y-74978828D01*
X88823509Y-74860474D01*
X89019744Y-74707738D01*
X89188164Y-74524785D01*
X89324173Y-74316607D01*
X89424063Y-74088881D01*
X89485108Y-73847821D01*
X89505643Y-73600000D01*
X89493636Y-73455099D01*
X89485109Y-73352187D01*
X89485107Y-73352175D01*
X89424063Y-73111118D01*
X89324173Y-72883393D01*
X89188166Y-72675217D01*
X89166557Y-72651744D01*
X89019744Y-72492262D01*
X88823509Y-72339526D01*
X88823507Y-72339525D01*
X88823506Y-72339524D01*
X88604811Y-72221172D01*
X88604802Y-72221169D01*
X88369616Y-72140429D01*
X88124335Y-72099500D01*
X87875665Y-72099500D01*
X87630383Y-72140429D01*
X87395197Y-72221169D01*
X87395188Y-72221172D01*
X87176493Y-72339524D01*
X86980257Y-72492261D01*
X86811833Y-72675217D01*
X86675826Y-72883393D01*
X86575936Y-73111118D01*
X86514892Y-73352175D01*
X86514890Y-73352187D01*
X86494357Y-73599994D01*
X86494357Y-73600005D01*
X80300500Y-73600005D01*
X80300500Y-70894645D01*
X81099500Y-70894645D01*
X81138855Y-71079802D01*
X81138857Y-71079807D01*
X81215848Y-71252729D01*
X81215851Y-71252734D01*
X81327111Y-71405870D01*
X81327112Y-71405871D01*
X81467784Y-71532533D01*
X81631716Y-71627179D01*
X81811744Y-71685674D01*
X81952808Y-71700500D01*
X81952812Y-71700500D01*
X82047188Y-71700500D01*
X82047192Y-71700500D01*
X82188256Y-71685674D01*
X82368284Y-71627179D01*
X82532216Y-71532533D01*
X82672888Y-71405871D01*
X82784151Y-71252730D01*
X82861144Y-71079803D01*
X82900500Y-70894646D01*
X82900500Y-70894645D01*
X83599500Y-70894645D01*
X83638855Y-71079802D01*
X83638857Y-71079807D01*
X83715848Y-71252729D01*
X83715851Y-71252734D01*
X83827111Y-71405870D01*
X83827112Y-71405871D01*
X83967784Y-71532533D01*
X84131716Y-71627179D01*
X84311744Y-71685674D01*
X84452808Y-71700500D01*
X84452812Y-71700500D01*
X84547188Y-71700500D01*
X84547192Y-71700500D01*
X84688256Y-71685674D01*
X84868284Y-71627179D01*
X85032216Y-71532533D01*
X85172888Y-71405871D01*
X85284151Y-71252730D01*
X85361144Y-71079803D01*
X85400500Y-70894646D01*
X85400500Y-70705354D01*
X85361144Y-70520197D01*
X85337564Y-70467237D01*
X85284151Y-70347270D01*
X85284148Y-70347265D01*
X85172888Y-70194129D01*
X85133589Y-70158744D01*
X85032216Y-70067467D01*
X84868284Y-69972821D01*
X84868277Y-69972818D01*
X84688259Y-69914327D01*
X84688256Y-69914326D01*
X84547192Y-69899500D01*
X84452808Y-69899500D01*
X84311744Y-69914326D01*
X84311741Y-69914326D01*
X84311740Y-69914327D01*
X84131722Y-69972818D01*
X84131715Y-69972821D01*
X83967785Y-70067466D01*
X83827111Y-70194129D01*
X83715851Y-70347265D01*
X83715848Y-70347270D01*
X83638857Y-70520192D01*
X83638855Y-70520197D01*
X83599500Y-70705354D01*
X83599500Y-70894645D01*
X82900500Y-70894645D01*
X82900500Y-70705354D01*
X82861144Y-70520197D01*
X82837564Y-70467237D01*
X82784151Y-70347270D01*
X82784148Y-70347265D01*
X82672888Y-70194129D01*
X82633589Y-70158744D01*
X82532216Y-70067467D01*
X82368284Y-69972821D01*
X82368277Y-69972818D01*
X82188259Y-69914327D01*
X82188256Y-69914326D01*
X82047192Y-69899500D01*
X81952808Y-69899500D01*
X81811744Y-69914326D01*
X81811741Y-69914326D01*
X81811740Y-69914327D01*
X81631722Y-69972818D01*
X81631715Y-69972821D01*
X81467785Y-70067466D01*
X81327111Y-70194129D01*
X81215851Y-70347265D01*
X81215848Y-70347270D01*
X81138857Y-70520192D01*
X81138855Y-70520197D01*
X81099500Y-70705354D01*
X81099500Y-70894645D01*
X80300500Y-70894645D01*
X80300500Y-68424500D01*
X80320185Y-68357461D01*
X80372989Y-68311706D01*
X80424500Y-68300500D01*
X81068995Y-68300500D01*
X81160041Y-68282389D01*
X81204328Y-68273580D01*
X81302924Y-68232740D01*
X81331804Y-68220778D01*
X81331804Y-68220777D01*
X81331811Y-68220775D01*
X81446542Y-68144114D01*
X81544114Y-68046542D01*
X81620775Y-67931811D01*
X81673580Y-67804328D01*
X81685553Y-67744135D01*
X81700500Y-67668995D01*
X81700500Y-66352425D01*
X83399500Y-66352425D01*
X83405609Y-66416401D01*
X83414472Y-66509217D01*
X83414473Y-66509221D01*
X83470490Y-66699999D01*
X83473684Y-66710875D01*
X83555389Y-66869361D01*
X83569991Y-66897686D01*
X83699905Y-67062883D01*
X83699909Y-67062887D01*
X83858746Y-67200521D01*
X84040750Y-67305601D01*
X84040752Y-67305601D01*
X84040756Y-67305604D01*
X84239367Y-67374344D01*
X84447398Y-67404254D01*
X84657330Y-67394254D01*
X84861576Y-67344704D01*
X84947199Y-67305601D01*
X85052743Y-67257401D01*
X85052746Y-67257399D01*
X85052753Y-67257396D01*
X85223952Y-67135486D01*
X85289367Y-67066880D01*
X85349872Y-67031947D01*
X85419663Y-67035270D01*
X85453419Y-67053185D01*
X85507664Y-67093793D01*
X85507671Y-67093797D01*
X85642517Y-67144091D01*
X85642516Y-67144091D01*
X85649444Y-67144835D01*
X85702127Y-67150500D01*
X86837770Y-67150499D01*
X86904809Y-67170184D01*
X86925451Y-67186818D01*
X87174267Y-67435634D01*
X87186048Y-67449266D01*
X87200390Y-67468530D01*
X87238343Y-67500376D01*
X87246319Y-67507686D01*
X87250220Y-67511588D01*
X87274543Y-67530820D01*
X87277304Y-67533069D01*
X87300348Y-67552405D01*
X87334789Y-67581305D01*
X87340818Y-67585270D01*
X87340785Y-67585319D01*
X87347143Y-67589369D01*
X87347175Y-67589319D01*
X87353317Y-67593107D01*
X87353319Y-67593108D01*
X87353323Y-67593111D01*
X87421315Y-67624816D01*
X87424560Y-67626388D01*
X87471078Y-67649750D01*
X87491567Y-67660040D01*
X87491569Y-67660040D01*
X87498361Y-67662513D01*
X87498340Y-67662570D01*
X87505455Y-67665043D01*
X87505475Y-67664986D01*
X87512323Y-67667254D01*
X87512328Y-67667257D01*
X87585852Y-67682437D01*
X87589286Y-67683199D01*
X87632669Y-67693482D01*
X87662274Y-67700499D01*
X87662275Y-67700499D01*
X87662279Y-67700500D01*
X87662283Y-67700500D01*
X87669452Y-67701338D01*
X87669444Y-67701397D01*
X87676945Y-67702164D01*
X87676951Y-67702105D01*
X87684140Y-67702734D01*
X87684144Y-67702733D01*
X87684145Y-67702734D01*
X87759131Y-67700552D01*
X87762738Y-67700500D01*
X88025500Y-67700500D01*
X88092539Y-67720185D01*
X88138294Y-67772989D01*
X88149500Y-67824500D01*
X88149500Y-69397870D01*
X88149501Y-69397876D01*
X88155908Y-69457483D01*
X88206202Y-69592328D01*
X88206206Y-69592335D01*
X88292452Y-69707544D01*
X88292453Y-69707544D01*
X88292454Y-69707546D01*
X88310780Y-69721265D01*
X88325199Y-69732059D01*
X88367069Y-69787993D01*
X88372053Y-69857685D01*
X88338567Y-69919008D01*
X88327540Y-69928795D01*
X88237112Y-69999909D01*
X88099478Y-70158746D01*
X87994398Y-70340750D01*
X87925656Y-70539365D01*
X87925656Y-70539367D01*
X87896600Y-70741462D01*
X87895746Y-70747401D01*
X87905745Y-70957327D01*
X87955296Y-71161578D01*
X87955298Y-71161582D01*
X88042598Y-71352743D01*
X88042601Y-71352748D01*
X88042602Y-71352750D01*
X88042604Y-71352753D01*
X88144704Y-71496132D01*
X88164515Y-71523953D01*
X88164520Y-71523959D01*
X88316620Y-71668985D01*
X88411578Y-71730011D01*
X88493428Y-71782613D01*
X88688543Y-71860725D01*
X88791729Y-71880612D01*
X88894914Y-71900500D01*
X88894915Y-71900500D01*
X90052419Y-71900500D01*
X90052425Y-71900500D01*
X90209218Y-71885528D01*
X90410875Y-71826316D01*
X90597682Y-71730011D01*
X90618894Y-71713330D01*
X90728442Y-71627179D01*
X90762886Y-71600092D01*
X90900519Y-71441256D01*
X91005604Y-71259244D01*
X91074344Y-71060633D01*
X91104254Y-70852602D01*
X91094254Y-70642670D01*
X91044704Y-70438424D01*
X91033885Y-70414733D01*
X90957401Y-70247256D01*
X90957398Y-70247251D01*
X90957397Y-70247250D01*
X90957396Y-70247247D01*
X90835486Y-70076048D01*
X90835484Y-70076046D01*
X90835479Y-70076040D01*
X90683377Y-69931012D01*
X90678733Y-69927360D01*
X90679991Y-69925760D01*
X90640251Y-69879907D01*
X90630300Y-69810749D01*
X90659319Y-69747190D01*
X90678720Y-69729124D01*
X90707546Y-69707546D01*
X90793796Y-69592331D01*
X90844091Y-69457483D01*
X90850500Y-69397873D01*
X90850499Y-68311228D01*
X90870184Y-68244190D01*
X90922987Y-68198435D01*
X90992146Y-68188491D01*
X91055702Y-68217516D01*
X91062180Y-68223548D01*
X93163181Y-70324549D01*
X93196666Y-70385872D01*
X93199500Y-70412230D01*
X93199500Y-72080006D01*
X93179815Y-72147045D01*
X93127011Y-72192800D01*
X93057853Y-72202744D01*
X93035237Y-72197287D01*
X92869616Y-72140429D01*
X92624335Y-72099500D01*
X92375665Y-72099500D01*
X92130383Y-72140429D01*
X91895197Y-72221169D01*
X91895188Y-72221172D01*
X91676493Y-72339524D01*
X91480257Y-72492261D01*
X91311833Y-72675217D01*
X91175826Y-72883393D01*
X91075936Y-73111118D01*
X91014892Y-73352175D01*
X91014890Y-73352187D01*
X90994357Y-73599994D01*
X90994357Y-73600005D01*
X91014890Y-73847812D01*
X91014892Y-73847824D01*
X91075936Y-74088881D01*
X91175826Y-74316606D01*
X91311833Y-74524782D01*
X91311836Y-74524785D01*
X91480256Y-74707738D01*
X91676491Y-74860474D01*
X91895190Y-74978828D01*
X92130386Y-75059571D01*
X92375665Y-75100500D01*
X92624335Y-75100500D01*
X92869614Y-75059571D01*
X93104810Y-74978828D01*
X93323509Y-74860474D01*
X93519744Y-74707738D01*
X93688164Y-74524785D01*
X93713416Y-74486132D01*
X93766561Y-74440777D01*
X93835792Y-74431352D01*
X93899128Y-74460853D01*
X93904906Y-74466273D01*
X95110205Y-75671572D01*
X95143690Y-75732895D01*
X95146052Y-75770059D01*
X95134685Y-75899996D01*
X95134685Y-75900001D01*
X95153907Y-76119714D01*
X95153909Y-76119724D01*
X95210990Y-76332755D01*
X95210995Y-76332769D01*
X95304203Y-76532654D01*
X95304207Y-76532662D01*
X95430712Y-76713330D01*
X95586669Y-76869287D01*
X95767337Y-76995792D01*
X95767339Y-76995793D01*
X95767342Y-76995795D01*
X95887603Y-77051873D01*
X95967230Y-77089004D01*
X95967232Y-77089004D01*
X95967237Y-77089007D01*
X96180280Y-77146092D01*
X96337222Y-77159822D01*
X96399998Y-77165315D01*
X96400000Y-77165315D01*
X96400002Y-77165315D01*
X96454930Y-77160509D01*
X96619720Y-77146092D01*
X96832763Y-77089007D01*
X97032658Y-76995795D01*
X97213329Y-76869288D01*
X97369288Y-76713329D01*
X97495795Y-76532658D01*
X97589007Y-76332763D01*
X97646092Y-76119720D01*
X97665315Y-75900001D01*
X105135187Y-75900001D01*
X105154401Y-76119626D01*
X105154402Y-76119634D01*
X105211463Y-76332587D01*
X105211466Y-76332593D01*
X105304638Y-76532402D01*
X105349694Y-76596750D01*
X105997676Y-75948769D01*
X106010021Y-76026712D01*
X106068264Y-76141020D01*
X106158980Y-76231736D01*
X106273288Y-76289979D01*
X106351229Y-76302323D01*
X105703247Y-76950304D01*
X105767593Y-76995359D01*
X105967406Y-77088533D01*
X105967412Y-77088536D01*
X106180365Y-77145597D01*
X106180373Y-77145598D01*
X106399998Y-77164813D01*
X106400002Y-77164813D01*
X106619626Y-77145598D01*
X106619634Y-77145597D01*
X106789796Y-77100002D01*
X109097685Y-77100002D01*
X109117509Y-77326599D01*
X109117511Y-77326610D01*
X109176381Y-77546317D01*
X109176386Y-77546331D01*
X109272514Y-77752478D01*
X109323625Y-77825472D01*
X110004697Y-77144400D01*
X110017486Y-77225148D01*
X110075010Y-77338045D01*
X110164606Y-77427641D01*
X110277503Y-77485165D01*
X110358250Y-77497953D01*
X109677177Y-78179025D01*
X109750164Y-78230132D01*
X109750172Y-78230136D01*
X109956319Y-78326264D01*
X109956333Y-78326269D01*
X110176040Y-78385139D01*
X110176051Y-78385141D01*
X110402649Y-78404966D01*
X110402653Y-78404966D01*
X110629250Y-78385141D01*
X110629261Y-78385139D01*
X110848968Y-78326269D01*
X110848982Y-78326264D01*
X111055129Y-78230136D01*
X111128122Y-78179024D01*
X110896968Y-77947870D01*
X114102151Y-77947870D01*
X114102152Y-77947876D01*
X114108559Y-78007483D01*
X114158853Y-78142328D01*
X114158857Y-78142335D01*
X114245103Y-78257544D01*
X114245106Y-78257547D01*
X114360315Y-78343793D01*
X114360322Y-78343797D01*
X114366564Y-78346125D01*
X114495168Y-78394091D01*
X114554778Y-78400500D01*
X115236867Y-78400499D01*
X115303906Y-78420183D01*
X115324548Y-78436818D01*
X116985083Y-80097352D01*
X116987276Y-80099601D01*
X117047591Y-80163052D01*
X117047599Y-80163058D01*
X117096013Y-80196755D01*
X117103522Y-80202416D01*
X117149244Y-80239698D01*
X117176216Y-80253786D01*
X117189631Y-80261915D01*
X117214602Y-80279295D01*
X117242756Y-80291377D01*
X117268814Y-80302559D01*
X117277303Y-80306590D01*
X117329602Y-80333909D01*
X117351649Y-80340216D01*
X117358835Y-80342273D01*
X117373627Y-80347539D01*
X117401590Y-80359539D01*
X117401593Y-80359540D01*
X117459378Y-80371414D01*
X117468520Y-80373657D01*
X117525233Y-80389886D01*
X117555569Y-80392196D01*
X117571108Y-80394376D01*
X117600906Y-80400500D01*
X117600910Y-80400500D01*
X117659895Y-80400500D01*
X117669310Y-80400857D01*
X117728127Y-80405337D01*
X117758302Y-80401493D01*
X117773969Y-80400500D01*
X121985721Y-80400500D01*
X121988863Y-80400540D01*
X122076358Y-80402757D01*
X122076358Y-80402756D01*
X122076363Y-80402757D01*
X122134425Y-80392349D01*
X122143754Y-80391041D01*
X122202438Y-80385074D01*
X122231471Y-80375964D01*
X122246700Y-80372226D01*
X122276653Y-80366858D01*
X122276657Y-80366856D01*
X122276659Y-80366856D01*
X122331423Y-80344980D01*
X122340292Y-80341821D01*
X122396588Y-80324159D01*
X122423200Y-80309387D01*
X122437362Y-80302662D01*
X122465617Y-80291377D01*
X122514879Y-80258909D01*
X122522910Y-80254043D01*
X122574502Y-80225409D01*
X122574509Y-80225402D01*
X122574512Y-80225401D01*
X122597583Y-80205594D01*
X122610125Y-80196137D01*
X122635519Y-80179402D01*
X122677237Y-80137682D01*
X122684122Y-80131301D01*
X122728895Y-80092866D01*
X122747520Y-80068802D01*
X122757880Y-80057039D01*
X123822409Y-78992510D01*
X123824578Y-78990395D01*
X123888053Y-78930059D01*
X123921750Y-78881644D01*
X123927417Y-78874126D01*
X123964698Y-78828407D01*
X123978788Y-78801430D01*
X123986909Y-78788026D01*
X124004295Y-78763049D01*
X124027563Y-78708825D01*
X124031582Y-78700361D01*
X124058909Y-78648049D01*
X124067275Y-78618808D01*
X124072544Y-78604009D01*
X124084538Y-78576062D01*
X124084540Y-78576058D01*
X124096421Y-78518238D01*
X124098650Y-78509155D01*
X124114886Y-78452418D01*
X124117196Y-78422080D01*
X124119376Y-78406540D01*
X124119700Y-78404966D01*
X124120823Y-78399500D01*
X124125500Y-78376743D01*
X124125500Y-78317754D01*
X124125858Y-78308339D01*
X124129032Y-78266654D01*
X124130337Y-78249524D01*
X124126493Y-78219339D01*
X124125500Y-78203675D01*
X124125500Y-78069594D01*
X124995686Y-78069594D01*
X125026114Y-78346125D01*
X125096478Y-78615272D01*
X125191775Y-78839526D01*
X125205284Y-78871314D01*
X125350205Y-79108776D01*
X125350212Y-79108786D01*
X125528161Y-79322616D01*
X125528167Y-79322621D01*
X125693918Y-79471133D01*
X125735357Y-79508263D01*
X125967373Y-79661763D01*
X126219267Y-79779846D01*
X126219274Y-79779848D01*
X126219276Y-79779849D01*
X126485657Y-79859992D01*
X126485664Y-79859993D01*
X126485669Y-79859995D01*
X126760901Y-79900500D01*
X126760906Y-79900500D01*
X126969461Y-79900500D01*
X126969463Y-79900500D01*
X126969467Y-79900499D01*
X126969481Y-79900499D01*
X127016953Y-79897024D01*
X127177455Y-79885277D01*
X127448997Y-79824788D01*
X127708838Y-79725408D01*
X127951440Y-79589253D01*
X128171632Y-79419226D01*
X128206180Y-79383393D01*
X128264776Y-79322616D01*
X128364722Y-79218951D01*
X128526593Y-78992696D01*
X128605344Y-78839524D01*
X128653790Y-78745298D01*
X128653794Y-78745288D01*
X128653797Y-78745283D01*
X128743621Y-78481986D01*
X128794152Y-78208416D01*
X128804313Y-77930404D01*
X128773886Y-77653876D01*
X128703520Y-77384724D01*
X128594716Y-77128686D01*
X128449792Y-76891219D01*
X128427628Y-76864586D01*
X128271838Y-76677383D01*
X128271832Y-76677378D01*
X128064643Y-76491737D01*
X127832629Y-76338238D01*
X127832627Y-76338237D01*
X127580733Y-76220154D01*
X127580728Y-76220152D01*
X127580723Y-76220150D01*
X127314342Y-76140007D01*
X127314328Y-76140004D01*
X127176453Y-76119714D01*
X127039099Y-76099500D01*
X126830537Y-76099500D01*
X126830518Y-76099500D01*
X126622545Y-76114723D01*
X126622535Y-76114724D01*
X126351007Y-76175210D01*
X126350997Y-76175213D01*
X126091161Y-76274592D01*
X125848561Y-76410746D01*
X125848556Y-76410749D01*
X125628369Y-76580772D01*
X125628359Y-76580781D01*
X125435281Y-76781045D01*
X125435274Y-76781053D01*
X125273412Y-77007295D01*
X125273405Y-77007307D01*
X125146209Y-77254701D01*
X125146205Y-77254711D01*
X125056379Y-77518012D01*
X125056378Y-77518018D01*
X125005848Y-77791584D01*
X125005847Y-77791591D01*
X124995686Y-78069594D01*
X124125500Y-78069594D01*
X124125500Y-77749256D01*
X124110074Y-77597560D01*
X124049162Y-77403420D01*
X124049160Y-77403416D01*
X124049159Y-77403412D01*
X123950409Y-77225498D01*
X123950408Y-77225497D01*
X123950407Y-77225495D01*
X123817867Y-77071106D01*
X123817865Y-77071104D01*
X123656962Y-76946554D01*
X123656959Y-76946553D01*
X123656958Y-76946552D01*
X123474271Y-76856940D01*
X123277285Y-76805937D01*
X123277287Y-76805937D01*
X123141804Y-76799066D01*
X123074064Y-76795631D01*
X123074063Y-76795631D01*
X123068267Y-76796519D01*
X122999020Y-76787207D01*
X122945800Y-76741937D01*
X122925504Y-76675080D01*
X122925499Y-76673947D01*
X122925499Y-76202129D01*
X122925498Y-76202123D01*
X122924465Y-76192517D01*
X122919091Y-76142517D01*
X122917810Y-76139083D01*
X122868797Y-76007671D01*
X122868793Y-76007664D01*
X122782547Y-75892455D01*
X122782544Y-75892452D01*
X122667335Y-75806206D01*
X122667328Y-75806202D01*
X122532482Y-75755908D01*
X122532483Y-75755908D01*
X122472883Y-75749501D01*
X122472881Y-75749500D01*
X122472873Y-75749500D01*
X122472864Y-75749500D01*
X120677129Y-75749500D01*
X120677123Y-75749501D01*
X120617516Y-75755908D01*
X120482671Y-75806202D01*
X120482664Y-75806206D01*
X120367455Y-75892452D01*
X120367452Y-75892455D01*
X120281206Y-76007664D01*
X120281203Y-76007669D01*
X120232189Y-76139083D01*
X120190317Y-76195016D01*
X120124853Y-76219433D01*
X120056580Y-76204581D01*
X120028326Y-76183430D01*
X119906402Y-76061506D01*
X119906395Y-76061501D01*
X119900922Y-76057669D01*
X119867521Y-76034281D01*
X119712834Y-75925967D01*
X119712830Y-75925965D01*
X119657146Y-75899999D01*
X119498663Y-75826097D01*
X119498659Y-75826096D01*
X119498655Y-75826094D01*
X119270413Y-75764938D01*
X119270403Y-75764936D01*
X119035001Y-75744341D01*
X119034999Y-75744341D01*
X118799596Y-75764936D01*
X118799586Y-75764938D01*
X118571344Y-75826094D01*
X118571335Y-75826098D01*
X118357171Y-75925964D01*
X118357169Y-75925965D01*
X118163597Y-76061505D01*
X117996505Y-76228597D01*
X117860965Y-76422169D01*
X117860964Y-76422171D01*
X117761098Y-76636335D01*
X117761094Y-76636344D01*
X117699938Y-76864586D01*
X117699936Y-76864596D01*
X117679341Y-77099999D01*
X117679341Y-77100000D01*
X117699936Y-77335403D01*
X117699938Y-77335413D01*
X117761094Y-77563655D01*
X117761096Y-77563659D01*
X117761097Y-77563663D01*
X117860965Y-77777830D01*
X117901845Y-77836212D01*
X117924172Y-77902419D01*
X117907162Y-77970186D01*
X117856214Y-78017999D01*
X117787504Y-78030677D01*
X117722848Y-78004195D01*
X117712589Y-77995017D01*
X116739469Y-77021897D01*
X116705984Y-76960574D01*
X116703150Y-76934216D01*
X116703150Y-76252129D01*
X116703149Y-76252123D01*
X116703148Y-76252116D01*
X116696742Y-76192517D01*
X116678093Y-76142517D01*
X116646448Y-76057671D01*
X116646444Y-76057664D01*
X116560198Y-75942455D01*
X116560195Y-75942452D01*
X116444986Y-75856206D01*
X116444979Y-75856202D01*
X116310133Y-75805908D01*
X116310134Y-75805908D01*
X116250534Y-75799501D01*
X116250532Y-75799500D01*
X116250524Y-75799500D01*
X116250515Y-75799500D01*
X114554780Y-75799500D01*
X114554774Y-75799501D01*
X114495167Y-75805908D01*
X114360322Y-75856202D01*
X114360315Y-75856206D01*
X114245106Y-75942452D01*
X114245103Y-75942455D01*
X114158857Y-76057664D01*
X114158853Y-76057671D01*
X114108559Y-76192517D01*
X114104343Y-76231736D01*
X114102152Y-76252123D01*
X114102151Y-76252135D01*
X114102151Y-77947870D01*
X110896968Y-77947870D01*
X110447051Y-77497953D01*
X110527799Y-77485165D01*
X110640696Y-77427641D01*
X110730292Y-77338045D01*
X110787816Y-77225148D01*
X110800604Y-77144400D01*
X111481675Y-77825471D01*
X111532787Y-77752478D01*
X111628915Y-77546331D01*
X111628920Y-77546317D01*
X111687790Y-77326610D01*
X111687792Y-77326599D01*
X111707617Y-77100002D01*
X111707617Y-77099997D01*
X111687792Y-76873400D01*
X111687790Y-76873389D01*
X111628920Y-76653682D01*
X111628915Y-76653668D01*
X111532787Y-76447521D01*
X111532783Y-76447513D01*
X111481676Y-76374526D01*
X110800604Y-77055598D01*
X110787816Y-76974852D01*
X110730292Y-76861955D01*
X110640696Y-76772359D01*
X110527799Y-76714835D01*
X110447052Y-76702046D01*
X111128123Y-76020974D01*
X111055129Y-75969863D01*
X110848982Y-75873735D01*
X110848968Y-75873730D01*
X110629261Y-75814860D01*
X110629250Y-75814858D01*
X110402653Y-75795034D01*
X110402649Y-75795034D01*
X110176051Y-75814858D01*
X110176040Y-75814860D01*
X109956333Y-75873730D01*
X109956324Y-75873734D01*
X109750167Y-75969866D01*
X109750163Y-75969868D01*
X109677177Y-76020973D01*
X109677177Y-76020974D01*
X110358250Y-76702046D01*
X110277503Y-76714835D01*
X110164606Y-76772359D01*
X110075010Y-76861955D01*
X110017486Y-76974852D01*
X110004697Y-77055598D01*
X109323625Y-76374526D01*
X109323624Y-76374526D01*
X109272519Y-76447512D01*
X109272517Y-76447516D01*
X109176385Y-76653673D01*
X109176381Y-76653682D01*
X109117511Y-76873389D01*
X109117509Y-76873400D01*
X109097685Y-77099997D01*
X109097685Y-77100002D01*
X106789796Y-77100002D01*
X106832587Y-77088536D01*
X106832598Y-77088532D01*
X107032402Y-76995362D01*
X107032410Y-76995358D01*
X107096751Y-76950305D01*
X107096751Y-76950304D01*
X106448771Y-76302323D01*
X106526712Y-76289979D01*
X106641020Y-76231736D01*
X106731736Y-76141020D01*
X106789979Y-76026712D01*
X106802323Y-75948770D01*
X107450304Y-76596751D01*
X107450305Y-76596751D01*
X107495358Y-76532410D01*
X107495362Y-76532402D01*
X107588532Y-76332598D01*
X107588536Y-76332587D01*
X107645597Y-76119634D01*
X107645598Y-76119626D01*
X107664813Y-75900001D01*
X107664813Y-75899998D01*
X107645598Y-75680373D01*
X107645597Y-75680366D01*
X107588533Y-75467404D01*
X107495360Y-75267595D01*
X107495359Y-75267593D01*
X107450304Y-75203248D01*
X107450304Y-75203247D01*
X106802323Y-75851228D01*
X106789979Y-75773288D01*
X106731736Y-75658980D01*
X106641020Y-75568264D01*
X106526712Y-75510021D01*
X106448770Y-75497676D01*
X107096751Y-74849694D01*
X107032402Y-74804638D01*
X106832593Y-74711466D01*
X106832587Y-74711463D01*
X106619634Y-74654402D01*
X106619626Y-74654401D01*
X106400002Y-74635187D01*
X106399998Y-74635187D01*
X106180373Y-74654401D01*
X106180366Y-74654402D01*
X105967404Y-74711466D01*
X105767594Y-74804640D01*
X105703248Y-74849694D01*
X106351230Y-75497676D01*
X106273288Y-75510021D01*
X106158980Y-75568264D01*
X106068264Y-75658980D01*
X106010021Y-75773288D01*
X105997676Y-75851230D01*
X105349694Y-75203248D01*
X105304640Y-75267594D01*
X105211466Y-75467404D01*
X105154402Y-75680366D01*
X105154401Y-75680373D01*
X105135187Y-75899998D01*
X105135187Y-75900001D01*
X97665315Y-75900001D01*
X97665315Y-75900000D01*
X97646092Y-75680280D01*
X97589007Y-75467237D01*
X97495795Y-75267343D01*
X97369288Y-75086671D01*
X97369286Y-75086668D01*
X97213330Y-74930712D01*
X97032662Y-74804207D01*
X97032654Y-74804203D01*
X96832769Y-74710995D01*
X96832755Y-74710990D01*
X96619724Y-74653909D01*
X96619722Y-74653908D01*
X96619720Y-74653908D01*
X96619718Y-74653907D01*
X96619714Y-74653907D01*
X96400002Y-74634685D01*
X96399997Y-74634685D01*
X96270060Y-74646052D01*
X96201561Y-74632285D01*
X96171573Y-74610205D01*
X94736819Y-73175451D01*
X94703334Y-73114128D01*
X94700500Y-73087770D01*
X94700500Y-70113705D01*
X94701809Y-70095735D01*
X94702339Y-70092116D01*
X94705289Y-70071977D01*
X94704894Y-70067467D01*
X94700972Y-70022630D01*
X94700500Y-70011822D01*
X94700500Y-70006296D01*
X94700500Y-70006291D01*
X94696901Y-69975509D01*
X94696536Y-69971929D01*
X94689999Y-69897201D01*
X94688539Y-69890129D01*
X94688597Y-69890116D01*
X94686965Y-69882757D01*
X94686906Y-69882772D01*
X94685242Y-69875753D01*
X94685241Y-69875745D01*
X94659591Y-69805273D01*
X94658408Y-69801868D01*
X94634813Y-69730663D01*
X94631764Y-69724124D01*
X94631817Y-69724099D01*
X94628531Y-69717311D01*
X94628479Y-69717338D01*
X94625236Y-69710882D01*
X94623039Y-69707542D01*
X94587765Y-69653909D01*
X94584025Y-69648222D01*
X94582088Y-69645181D01*
X94542714Y-69581347D01*
X94538234Y-69575681D01*
X94538280Y-69575643D01*
X94533519Y-69569799D01*
X94533474Y-69569838D01*
X94528831Y-69564305D01*
X94474290Y-69512848D01*
X94471703Y-69510335D01*
X91999048Y-67037680D01*
X91965563Y-66976357D01*
X91970547Y-66906665D01*
X91999048Y-66862318D01*
X94067941Y-64793425D01*
X96171574Y-62689791D01*
X96232895Y-62656308D01*
X96270056Y-62653946D01*
X96378032Y-62663393D01*
X96399999Y-62665315D01*
X96400000Y-62665315D01*
X96400001Y-62665315D01*
X96418399Y-62663705D01*
X96579308Y-62649627D01*
X96647806Y-62663393D01*
X96697989Y-62712008D01*
X96713923Y-62780037D01*
X96690548Y-62845881D01*
X96677795Y-62860836D01*
X95814358Y-63724272D01*
X95800729Y-63736051D01*
X95781469Y-63750390D01*
X95749632Y-63788331D01*
X95742346Y-63796284D01*
X95738407Y-63800224D01*
X95719176Y-63824545D01*
X95716902Y-63827337D01*
X95668694Y-63884790D01*
X95664729Y-63890819D01*
X95664682Y-63890788D01*
X95660630Y-63897147D01*
X95660679Y-63897177D01*
X95656889Y-63903321D01*
X95625192Y-63971294D01*
X95623623Y-63974536D01*
X95589957Y-64041572D01*
X95587488Y-64048357D01*
X95587432Y-64048336D01*
X95584960Y-64055450D01*
X95585015Y-64055469D01*
X95582743Y-64062325D01*
X95567573Y-64135788D01*
X95566793Y-64139304D01*
X95549499Y-64212279D01*
X95548661Y-64219454D01*
X95548601Y-64219447D01*
X95547835Y-64226945D01*
X95547895Y-64226951D01*
X95547265Y-64234140D01*
X95549448Y-64309128D01*
X95549500Y-64312735D01*
X95549500Y-66321836D01*
X95529815Y-66388875D01*
X95521355Y-66400499D01*
X95505864Y-66419375D01*
X95505860Y-66419381D01*
X95417604Y-66584497D01*
X95363253Y-66763666D01*
X95363252Y-66763668D01*
X95344901Y-66950000D01*
X95363252Y-67136331D01*
X95363253Y-67136333D01*
X95417604Y-67315502D01*
X95505862Y-67480623D01*
X95505864Y-67480626D01*
X95624642Y-67625357D01*
X95769373Y-67744135D01*
X95769376Y-67744137D01*
X95934497Y-67832395D01*
X95934499Y-67832396D01*
X96039685Y-67864304D01*
X96095867Y-67881347D01*
X96113669Y-67886747D01*
X96137963Y-67889139D01*
X96202750Y-67915297D01*
X96213493Y-67924861D01*
X96913181Y-68624549D01*
X96946666Y-68685872D01*
X96949500Y-68712230D01*
X96949500Y-69580672D01*
X96929815Y-69647711D01*
X96877011Y-69693466D01*
X96807853Y-69703410D01*
X96793407Y-69700447D01*
X96619725Y-69653909D01*
X96619721Y-69653908D01*
X96619720Y-69653908D01*
X96619719Y-69653907D01*
X96619714Y-69653907D01*
X96400002Y-69634685D01*
X96399998Y-69634685D01*
X96180285Y-69653907D01*
X96180275Y-69653909D01*
X95967244Y-69710990D01*
X95967235Y-69710994D01*
X95767344Y-69804204D01*
X95767342Y-69804205D01*
X95586668Y-69930713D01*
X95430713Y-70086668D01*
X95304205Y-70267342D01*
X95304204Y-70267344D01*
X95210994Y-70467235D01*
X95210990Y-70467244D01*
X95153909Y-70680275D01*
X95153907Y-70680285D01*
X95134685Y-70899998D01*
X95134685Y-70900001D01*
X95153907Y-71119714D01*
X95153909Y-71119724D01*
X95210990Y-71332755D01*
X95210995Y-71332769D01*
X95304203Y-71532654D01*
X95304207Y-71532662D01*
X95430712Y-71713330D01*
X95586669Y-71869287D01*
X95767337Y-71995792D01*
X95767339Y-71995793D01*
X95767342Y-71995795D01*
X95813990Y-72017547D01*
X95967230Y-72089004D01*
X95967232Y-72089004D01*
X95967237Y-72089007D01*
X96180280Y-72146092D01*
X96337222Y-72159822D01*
X96399998Y-72165315D01*
X96400000Y-72165315D01*
X96400002Y-72165315D01*
X96455059Y-72160498D01*
X96619720Y-72146092D01*
X96619731Y-72146088D01*
X96625054Y-72145151D01*
X96625449Y-72147393D01*
X96685563Y-72148802D01*
X96743440Y-72187943D01*
X96770969Y-72252161D01*
X96766514Y-72302917D01*
X96763252Y-72313669D01*
X96744901Y-72500000D01*
X96763252Y-72686331D01*
X96763253Y-72686333D01*
X96817604Y-72865502D01*
X96905862Y-73030623D01*
X96905864Y-73030626D01*
X97024642Y-73175357D01*
X97169373Y-73294135D01*
X97169376Y-73294137D01*
X97334497Y-73382395D01*
X97334499Y-73382396D01*
X97513666Y-73436746D01*
X97513668Y-73436747D01*
X97530374Y-73438392D01*
X97700000Y-73455099D01*
X97886331Y-73436747D01*
X98065501Y-73382396D01*
X98230625Y-73294136D01*
X98375357Y-73175357D01*
X98494136Y-73030625D01*
X98582396Y-72865501D01*
X98636747Y-72686331D01*
X98655099Y-72500000D01*
X98636747Y-72313669D01*
X98582396Y-72134499D01*
X98494136Y-71969375D01*
X98478645Y-71950499D01*
X98451333Y-71886188D01*
X98450500Y-71871836D01*
X98450500Y-71707870D01*
X105139500Y-71707870D01*
X105139501Y-71707876D01*
X105145908Y-71767483D01*
X105196202Y-71902328D01*
X105196206Y-71902335D01*
X105282452Y-72017544D01*
X105282455Y-72017547D01*
X105397664Y-72103793D01*
X105397671Y-72103797D01*
X105532517Y-72154091D01*
X105532516Y-72154091D01*
X105539444Y-72154835D01*
X105592127Y-72160500D01*
X107207872Y-72160499D01*
X107267483Y-72154091D01*
X107402331Y-72103796D01*
X107517546Y-72017546D01*
X107603796Y-71902331D01*
X107654091Y-71767483D01*
X107660500Y-71707873D01*
X107660500Y-71500000D01*
X112769402Y-71500000D01*
X112789738Y-71693483D01*
X112849856Y-71878510D01*
X112849857Y-71878511D01*
X112930128Y-72017544D01*
X112947130Y-72046992D01*
X112976856Y-72080006D01*
X113077302Y-72191564D01*
X113077305Y-72191566D01*
X113077308Y-72191569D01*
X113149235Y-72243827D01*
X113234702Y-72305923D01*
X113302926Y-72336297D01*
X113412429Y-72385051D01*
X113602726Y-72425500D01*
X113797274Y-72425500D01*
X113987571Y-72385051D01*
X114165299Y-72305922D01*
X114322692Y-72191569D01*
X114452870Y-72046992D01*
X114550144Y-71878508D01*
X114610262Y-71693482D01*
X114630598Y-71500000D01*
X114610262Y-71306518D01*
X114608144Y-71300000D01*
X115394659Y-71300000D01*
X115413975Y-71496129D01*
X115413976Y-71496132D01*
X115445511Y-71600090D01*
X115471188Y-71684733D01*
X115564086Y-71858532D01*
X115564090Y-71858539D01*
X115689116Y-72010883D01*
X115841460Y-72135909D01*
X115841467Y-72135913D01*
X116015266Y-72228811D01*
X116015269Y-72228811D01*
X116015273Y-72228814D01*
X116203868Y-72286024D01*
X116400000Y-72305341D01*
X116596132Y-72286024D01*
X116784727Y-72228814D01*
X116833501Y-72202744D01*
X116939489Y-72146092D01*
X116958538Y-72135910D01*
X117110883Y-72010883D01*
X117235910Y-71858538D01*
X117284580Y-71767483D01*
X117328811Y-71684733D01*
X117328811Y-71684732D01*
X117328814Y-71684727D01*
X117386024Y-71496132D01*
X117405341Y-71300000D01*
X117386024Y-71103868D01*
X117328814Y-70915273D01*
X117235910Y-70741462D01*
X117235907Y-70741458D01*
X117232523Y-70736393D01*
X117234164Y-70735296D01*
X117210405Y-70679361D01*
X117222194Y-70610493D01*
X117232888Y-70593851D01*
X117232523Y-70593607D01*
X117235904Y-70588544D01*
X117235910Y-70588538D01*
X117328814Y-70414727D01*
X117386024Y-70226132D01*
X117405341Y-70030000D01*
X117386024Y-69833868D01*
X117328814Y-69645273D01*
X117235910Y-69471462D01*
X117235907Y-69471458D01*
X117232523Y-69466393D01*
X117234164Y-69465296D01*
X117210405Y-69409361D01*
X117222194Y-69340493D01*
X117232888Y-69323851D01*
X117232523Y-69323607D01*
X117235904Y-69318544D01*
X117235910Y-69318538D01*
X117277889Y-69240000D01*
X118444341Y-69240000D01*
X118464936Y-69475403D01*
X118464938Y-69475413D01*
X118526094Y-69703655D01*
X118526096Y-69703659D01*
X118526097Y-69703663D01*
X118586813Y-69833868D01*
X118625965Y-69917830D01*
X118625967Y-69917834D01*
X118691779Y-70011822D01*
X118761505Y-70111401D01*
X118928599Y-70278495D01*
X118968620Y-70306518D01*
X119122165Y-70414032D01*
X119122167Y-70414033D01*
X119122170Y-70414035D01*
X119336337Y-70513903D01*
X119564592Y-70575063D01*
X119718643Y-70588541D01*
X119799999Y-70595659D01*
X119800000Y-70595659D01*
X119800001Y-70595659D01*
X119839234Y-70592226D01*
X120035408Y-70575063D01*
X120263663Y-70513903D01*
X120477830Y-70414035D01*
X120671401Y-70278495D01*
X120838495Y-70111401D01*
X120974035Y-69917830D01*
X121073903Y-69703663D01*
X121135063Y-69475408D01*
X121155659Y-69240000D01*
X121135063Y-69004592D01*
X121073903Y-68776337D01*
X120974035Y-68562171D01*
X120964578Y-68548664D01*
X120838494Y-68368597D01*
X120671402Y-68201506D01*
X120671396Y-68201501D01*
X120485842Y-68071575D01*
X120442217Y-68016998D01*
X120435023Y-67947500D01*
X120466546Y-67885145D01*
X120485842Y-67868425D01*
X120527769Y-67839067D01*
X120671401Y-67738495D01*
X120838495Y-67571401D01*
X120974035Y-67377830D01*
X121073903Y-67163663D01*
X121135063Y-66935408D01*
X121155659Y-66700000D01*
X121135063Y-66464592D01*
X121073903Y-66236337D01*
X120974035Y-66022171D01*
X120964578Y-66008664D01*
X120838494Y-65828597D01*
X120671402Y-65661506D01*
X120671396Y-65661501D01*
X120485842Y-65531575D01*
X120442217Y-65476998D01*
X120435023Y-65407500D01*
X120466546Y-65345145D01*
X120485842Y-65328425D01*
X120517131Y-65306516D01*
X120671401Y-65198495D01*
X120838495Y-65031401D01*
X120974035Y-64837830D01*
X121073903Y-64623663D01*
X121135063Y-64395408D01*
X121155659Y-64160000D01*
X121135063Y-63924592D01*
X121073903Y-63696337D01*
X120974035Y-63482171D01*
X120955631Y-63455886D01*
X120838494Y-63288597D01*
X120671402Y-63121506D01*
X120671396Y-63121501D01*
X120485842Y-62991575D01*
X120442217Y-62936998D01*
X120435023Y-62867500D01*
X120466546Y-62805145D01*
X120485842Y-62788425D01*
X120533579Y-62754999D01*
X120671401Y-62658495D01*
X120838495Y-62491401D01*
X120974035Y-62297830D01*
X121073903Y-62083663D01*
X121135063Y-61855408D01*
X121155659Y-61620000D01*
X121135063Y-61384592D01*
X121080343Y-61180373D01*
X121073905Y-61156344D01*
X121073904Y-61156343D01*
X121073903Y-61156337D01*
X120974035Y-60942171D01*
X120971115Y-60938000D01*
X120838494Y-60748597D01*
X120671402Y-60581506D01*
X120671396Y-60581501D01*
X120485842Y-60451575D01*
X120442217Y-60396998D01*
X120435023Y-60327500D01*
X120466546Y-60265145D01*
X120485842Y-60248425D01*
X120539300Y-60210993D01*
X120671401Y-60118495D01*
X120838495Y-59951401D01*
X120974035Y-59757830D01*
X121073903Y-59543663D01*
X121135063Y-59315408D01*
X121155659Y-59080000D01*
X121135063Y-58844592D01*
X121087336Y-58666469D01*
X121073905Y-58616344D01*
X121073904Y-58616343D01*
X121073903Y-58616337D01*
X120974035Y-58402171D01*
X120939806Y-58353286D01*
X120838494Y-58208597D01*
X120671402Y-58041506D01*
X120671396Y-58041501D01*
X120485842Y-57911575D01*
X120442217Y-57856998D01*
X120435023Y-57787500D01*
X120466546Y-57725145D01*
X120485842Y-57708425D01*
X120554287Y-57660499D01*
X120671401Y-57578495D01*
X120838495Y-57411401D01*
X120974035Y-57217830D01*
X120976134Y-57213330D01*
X120985667Y-57192884D01*
X121073903Y-57003663D01*
X121135063Y-56775408D01*
X121155659Y-56540000D01*
X121135063Y-56304592D01*
X121073903Y-56076337D01*
X120974035Y-55862171D01*
X120972511Y-55859995D01*
X120838496Y-55668600D01*
X120831657Y-55661761D01*
X120716567Y-55546671D01*
X120683084Y-55485351D01*
X120688068Y-55415659D01*
X120729939Y-55359725D01*
X120760915Y-55342810D01*
X120892331Y-55293796D01*
X121007546Y-55207546D01*
X121093796Y-55092331D01*
X121144091Y-54957483D01*
X121150500Y-54897873D01*
X121150499Y-53102128D01*
X121144091Y-53042517D01*
X121130957Y-53007304D01*
X121093797Y-52907671D01*
X121093793Y-52907664D01*
X121007547Y-52792455D01*
X121007544Y-52792452D01*
X120892335Y-52706206D01*
X120892328Y-52706202D01*
X120757482Y-52655908D01*
X120757483Y-52655908D01*
X120697883Y-52649501D01*
X120697881Y-52649500D01*
X120697873Y-52649500D01*
X120697864Y-52649500D01*
X118902129Y-52649500D01*
X118902123Y-52649501D01*
X118842516Y-52655908D01*
X118707671Y-52706202D01*
X118707664Y-52706206D01*
X118592455Y-52792452D01*
X118592452Y-52792455D01*
X118506206Y-52907664D01*
X118506202Y-52907671D01*
X118455908Y-53042517D01*
X118449728Y-53100002D01*
X118449501Y-53102123D01*
X118449500Y-53102135D01*
X118449500Y-54897870D01*
X118449501Y-54897876D01*
X118455908Y-54957483D01*
X118506202Y-55092328D01*
X118506206Y-55092335D01*
X118592452Y-55207544D01*
X118592455Y-55207547D01*
X118707664Y-55293793D01*
X118707671Y-55293797D01*
X118839081Y-55342810D01*
X118895015Y-55384681D01*
X118919432Y-55450145D01*
X118904580Y-55518418D01*
X118883430Y-55546673D01*
X118761503Y-55668600D01*
X118625965Y-55862169D01*
X118625964Y-55862171D01*
X118526098Y-56076335D01*
X118526094Y-56076344D01*
X118464938Y-56304586D01*
X118464936Y-56304596D01*
X118444341Y-56539999D01*
X118444341Y-56540000D01*
X118464936Y-56775403D01*
X118464938Y-56775413D01*
X118526094Y-57003655D01*
X118526096Y-57003659D01*
X118526097Y-57003663D01*
X118598527Y-57158990D01*
X118625962Y-57217824D01*
X118625967Y-57217834D01*
X118761501Y-57411395D01*
X118761506Y-57411402D01*
X118928597Y-57578493D01*
X118928603Y-57578498D01*
X119114158Y-57708425D01*
X119157783Y-57763002D01*
X119164977Y-57832500D01*
X119133454Y-57894855D01*
X119114158Y-57911575D01*
X118928597Y-58041505D01*
X118761505Y-58208597D01*
X118625965Y-58402169D01*
X118625964Y-58402171D01*
X118526098Y-58616335D01*
X118526094Y-58616344D01*
X118464938Y-58844586D01*
X118464936Y-58844596D01*
X118444341Y-59079999D01*
X118444341Y-59080000D01*
X118464936Y-59315403D01*
X118464938Y-59315413D01*
X118526094Y-59543655D01*
X118526096Y-59543659D01*
X118526097Y-59543663D01*
X118598765Y-59699500D01*
X118625965Y-59757830D01*
X118625967Y-59757834D01*
X118761501Y-59951395D01*
X118761506Y-59951402D01*
X118928597Y-60118493D01*
X118928603Y-60118498D01*
X119114158Y-60248425D01*
X119157783Y-60303002D01*
X119164977Y-60372500D01*
X119133454Y-60434855D01*
X119114158Y-60451575D01*
X118928597Y-60581505D01*
X118761505Y-60748597D01*
X118625965Y-60942169D01*
X118625964Y-60942171D01*
X118526098Y-61156335D01*
X118526094Y-61156344D01*
X118464938Y-61384586D01*
X118464936Y-61384596D01*
X118444341Y-61619999D01*
X118444341Y-61620000D01*
X118464936Y-61855403D01*
X118464938Y-61855413D01*
X118526094Y-62083655D01*
X118526096Y-62083659D01*
X118526097Y-62083663D01*
X118583238Y-62206202D01*
X118625965Y-62297830D01*
X118625967Y-62297834D01*
X118761501Y-62491395D01*
X118761506Y-62491402D01*
X118928597Y-62658493D01*
X118928603Y-62658498D01*
X119114158Y-62788425D01*
X119157783Y-62843002D01*
X119164977Y-62912500D01*
X119133454Y-62974855D01*
X119114158Y-62991575D01*
X118928597Y-63121505D01*
X118761505Y-63288597D01*
X118625965Y-63482169D01*
X118625964Y-63482171D01*
X118526098Y-63696335D01*
X118526094Y-63696344D01*
X118464938Y-63924586D01*
X118464936Y-63924596D01*
X118444341Y-64159999D01*
X118444341Y-64160000D01*
X118464936Y-64395403D01*
X118464938Y-64395413D01*
X118526094Y-64623655D01*
X118526096Y-64623659D01*
X118526097Y-64623663D01*
X118565270Y-64707669D01*
X118625965Y-64837830D01*
X118625967Y-64837834D01*
X118761501Y-65031395D01*
X118761506Y-65031402D01*
X118928597Y-65198493D01*
X118928603Y-65198498D01*
X119114158Y-65328425D01*
X119157783Y-65383002D01*
X119164977Y-65452500D01*
X119133454Y-65514855D01*
X119114158Y-65531575D01*
X118928597Y-65661505D01*
X118761505Y-65828597D01*
X118625965Y-66022169D01*
X118625964Y-66022171D01*
X118526098Y-66236335D01*
X118526094Y-66236344D01*
X118464938Y-66464586D01*
X118464936Y-66464596D01*
X118444341Y-66699999D01*
X118444341Y-66700000D01*
X118464936Y-66935403D01*
X118464938Y-66935413D01*
X118526094Y-67163655D01*
X118526096Y-67163659D01*
X118526097Y-67163663D01*
X118596901Y-67315502D01*
X118625965Y-67377830D01*
X118625967Y-67377834D01*
X118761501Y-67571395D01*
X118761506Y-67571402D01*
X118928597Y-67738493D01*
X118928603Y-67738498D01*
X119114158Y-67868425D01*
X119157783Y-67923002D01*
X119164977Y-67992500D01*
X119133454Y-68054855D01*
X119114158Y-68071575D01*
X118928597Y-68201505D01*
X118761505Y-68368597D01*
X118625965Y-68562169D01*
X118625964Y-68562171D01*
X118526098Y-68776335D01*
X118526094Y-68776344D01*
X118464938Y-69004586D01*
X118464936Y-69004596D01*
X118444341Y-69239999D01*
X118444341Y-69240000D01*
X117277889Y-69240000D01*
X117328814Y-69144727D01*
X117386024Y-68956132D01*
X117405341Y-68760000D01*
X117386024Y-68563868D01*
X117328814Y-68375273D01*
X117235910Y-68201462D01*
X117235907Y-68201458D01*
X117232523Y-68196393D01*
X117234164Y-68195296D01*
X117210405Y-68139361D01*
X117222194Y-68070493D01*
X117232888Y-68053851D01*
X117232523Y-68053607D01*
X117235904Y-68048544D01*
X117235910Y-68048538D01*
X117328814Y-67874727D01*
X117386024Y-67686132D01*
X117405341Y-67490000D01*
X117386024Y-67293868D01*
X117328814Y-67105273D01*
X117235910Y-66931462D01*
X117235907Y-66931458D01*
X117232523Y-66926393D01*
X117234164Y-66925296D01*
X117210405Y-66869361D01*
X117222194Y-66800493D01*
X117232888Y-66783851D01*
X117232523Y-66783607D01*
X117235904Y-66778544D01*
X117235910Y-66778538D01*
X117328814Y-66604727D01*
X117386024Y-66416132D01*
X117405341Y-66220000D01*
X117386024Y-66023868D01*
X117328814Y-65835273D01*
X117235910Y-65661462D01*
X117235907Y-65661458D01*
X117232523Y-65656393D01*
X117234164Y-65655296D01*
X117210405Y-65599361D01*
X117222194Y-65530493D01*
X117232888Y-65513851D01*
X117232523Y-65513607D01*
X117235904Y-65508544D01*
X117235910Y-65508538D01*
X117328814Y-65334727D01*
X117386024Y-65146132D01*
X117405341Y-64950000D01*
X117386024Y-64753868D01*
X117328814Y-64565273D01*
X117235910Y-64391462D01*
X117235907Y-64391458D01*
X117232523Y-64386393D01*
X117234164Y-64385296D01*
X117210405Y-64329361D01*
X117222194Y-64260493D01*
X117232888Y-64243851D01*
X117232523Y-64243607D01*
X117235904Y-64238544D01*
X117235910Y-64238538D01*
X117328814Y-64064727D01*
X117386024Y-63876132D01*
X117405341Y-63680000D01*
X117386024Y-63483868D01*
X117328814Y-63295273D01*
X117235910Y-63121462D01*
X117235907Y-63121458D01*
X117232523Y-63116393D01*
X117234164Y-63115296D01*
X117210405Y-63059361D01*
X117222194Y-62990493D01*
X117232888Y-62973851D01*
X117232523Y-62973607D01*
X117235904Y-62968544D01*
X117235910Y-62968538D01*
X117328814Y-62794727D01*
X117386024Y-62606132D01*
X117405341Y-62410000D01*
X117386024Y-62213868D01*
X117328814Y-62025273D01*
X117235910Y-61851462D01*
X117235907Y-61851458D01*
X117232523Y-61846393D01*
X117234164Y-61845296D01*
X117210405Y-61789361D01*
X117222194Y-61720493D01*
X117232888Y-61703851D01*
X117232523Y-61703607D01*
X117235904Y-61698544D01*
X117235910Y-61698538D01*
X117328814Y-61524727D01*
X117386024Y-61336132D01*
X117405341Y-61140000D01*
X117386024Y-60943868D01*
X117328814Y-60755273D01*
X117235910Y-60581462D01*
X117235907Y-60581458D01*
X117232523Y-60576393D01*
X117234164Y-60575296D01*
X117210405Y-60519361D01*
X117222194Y-60450493D01*
X117232888Y-60433851D01*
X117232523Y-60433607D01*
X117235904Y-60428544D01*
X117235910Y-60428538D01*
X117328814Y-60254727D01*
X117386024Y-60066132D01*
X117405341Y-59870000D01*
X117386024Y-59673868D01*
X117328814Y-59485273D01*
X117235910Y-59311462D01*
X117235907Y-59311458D01*
X117232523Y-59306393D01*
X117234164Y-59305296D01*
X117210405Y-59249361D01*
X117222194Y-59180493D01*
X117232888Y-59163851D01*
X117232523Y-59163607D01*
X117235904Y-59158544D01*
X117235910Y-59158538D01*
X117328814Y-58984727D01*
X117386024Y-58796132D01*
X117405341Y-58600000D01*
X117386024Y-58403868D01*
X117328814Y-58215273D01*
X117327677Y-58213146D01*
X117327418Y-58211904D01*
X117326483Y-58209645D01*
X117326911Y-58209467D01*
X117313435Y-58144746D01*
X117337771Y-58080379D01*
X117343796Y-58072331D01*
X117394091Y-57937483D01*
X117400500Y-57877873D01*
X117400499Y-56782128D01*
X117394091Y-56722517D01*
X117385698Y-56700015D01*
X117343797Y-56587671D01*
X117343793Y-56587664D01*
X117257547Y-56472455D01*
X117257544Y-56472452D01*
X117142335Y-56386206D01*
X117142328Y-56386202D01*
X117007482Y-56335908D01*
X117007483Y-56335908D01*
X116947883Y-56329501D01*
X116947881Y-56329500D01*
X116947873Y-56329500D01*
X116947864Y-56329500D01*
X115852129Y-56329500D01*
X115852123Y-56329501D01*
X115792516Y-56335908D01*
X115657671Y-56386202D01*
X115657664Y-56386206D01*
X115542455Y-56472452D01*
X115542452Y-56472455D01*
X115456206Y-56587664D01*
X115456202Y-56587671D01*
X115405908Y-56722517D01*
X115400223Y-56775403D01*
X115399501Y-56782123D01*
X115399500Y-56782135D01*
X115399500Y-57877870D01*
X115399501Y-57877876D01*
X115405908Y-57937483D01*
X115456202Y-58072328D01*
X115456204Y-58072331D01*
X115462231Y-58080382D01*
X115486648Y-58145846D01*
X115473105Y-58209470D01*
X115473518Y-58209641D01*
X115472595Y-58211869D01*
X115472324Y-58213143D01*
X115471188Y-58215267D01*
X115471186Y-58215272D01*
X115471186Y-58215273D01*
X115465593Y-58233711D01*
X115413975Y-58403870D01*
X115394659Y-58600000D01*
X115413975Y-58796129D01*
X115422088Y-58822873D01*
X115457011Y-58938000D01*
X115471188Y-58984733D01*
X115564086Y-59158532D01*
X115567473Y-59163601D01*
X115565836Y-59164694D01*
X115589596Y-59220663D01*
X115577795Y-59289529D01*
X115567109Y-59306156D01*
X115567473Y-59306399D01*
X115564086Y-59311467D01*
X115471188Y-59485266D01*
X115413975Y-59673870D01*
X115394659Y-59870000D01*
X115413975Y-60066129D01*
X115413976Y-60066132D01*
X115463027Y-60227832D01*
X115471188Y-60254733D01*
X115564086Y-60428532D01*
X115567473Y-60433601D01*
X115565836Y-60434694D01*
X115589596Y-60490663D01*
X115577795Y-60559529D01*
X115567109Y-60576156D01*
X115567473Y-60576399D01*
X115564086Y-60581467D01*
X115471188Y-60755266D01*
X115413975Y-60943870D01*
X115394659Y-61140000D01*
X115413975Y-61336129D01*
X115413976Y-61336132D01*
X115443815Y-61434499D01*
X115471188Y-61524733D01*
X115564086Y-61698532D01*
X115567473Y-61703601D01*
X115565836Y-61704694D01*
X115589596Y-61760663D01*
X115577795Y-61829529D01*
X115567109Y-61846156D01*
X115567473Y-61846399D01*
X115564086Y-61851467D01*
X115471188Y-62025266D01*
X115413975Y-62213870D01*
X115394659Y-62410000D01*
X115413975Y-62606129D01*
X115413976Y-62606132D01*
X115454323Y-62739139D01*
X115471188Y-62794733D01*
X115564086Y-62968532D01*
X115567473Y-62973601D01*
X115565836Y-62974694D01*
X115589596Y-63030663D01*
X115577795Y-63099529D01*
X115567109Y-63116156D01*
X115567473Y-63116399D01*
X115564086Y-63121467D01*
X115471188Y-63295266D01*
X115413975Y-63483870D01*
X115394659Y-63680000D01*
X115413975Y-63876129D01*
X115413976Y-63876132D01*
X115470457Y-64062325D01*
X115471188Y-64064733D01*
X115564086Y-64238532D01*
X115567473Y-64243601D01*
X115565836Y-64244694D01*
X115589596Y-64300663D01*
X115577795Y-64369529D01*
X115567109Y-64386156D01*
X115567473Y-64386399D01*
X115564086Y-64391467D01*
X115471188Y-64565266D01*
X115413975Y-64753870D01*
X115394659Y-64950000D01*
X115413975Y-65146129D01*
X115471188Y-65334733D01*
X115564086Y-65508532D01*
X115567473Y-65513601D01*
X115565836Y-65514694D01*
X115589596Y-65570663D01*
X115577795Y-65639529D01*
X115567109Y-65656156D01*
X115567473Y-65656399D01*
X115564086Y-65661467D01*
X115471188Y-65835266D01*
X115413975Y-66023870D01*
X115394659Y-66220000D01*
X115413975Y-66416129D01*
X115428674Y-66464586D01*
X115442213Y-66509218D01*
X115471188Y-66604733D01*
X115564086Y-66778532D01*
X115567473Y-66783601D01*
X115565836Y-66784694D01*
X115589596Y-66840663D01*
X115577795Y-66909529D01*
X115567109Y-66926156D01*
X115567473Y-66926399D01*
X115564086Y-66931467D01*
X115471188Y-67105266D01*
X115413975Y-67293870D01*
X115394659Y-67490000D01*
X115413975Y-67686129D01*
X115471188Y-67874733D01*
X115564086Y-68048532D01*
X115567473Y-68053601D01*
X115565836Y-68054694D01*
X115589596Y-68110663D01*
X115577795Y-68179529D01*
X115567109Y-68196156D01*
X115567473Y-68196399D01*
X115564086Y-68201467D01*
X115471188Y-68375266D01*
X115413975Y-68563870D01*
X115394659Y-68760000D01*
X115413975Y-68956129D01*
X115413976Y-68956132D01*
X115464137Y-69121491D01*
X115471188Y-69144733D01*
X115564086Y-69318532D01*
X115567473Y-69323601D01*
X115565836Y-69324694D01*
X115589596Y-69380663D01*
X115577795Y-69449529D01*
X115567109Y-69466156D01*
X115567473Y-69466399D01*
X115564086Y-69471467D01*
X115471188Y-69645266D01*
X115413975Y-69833870D01*
X115394659Y-70030000D01*
X115413975Y-70226129D01*
X115471188Y-70414733D01*
X115564086Y-70588532D01*
X115567473Y-70593601D01*
X115565836Y-70594694D01*
X115589596Y-70650663D01*
X115577795Y-70719529D01*
X115567109Y-70736156D01*
X115567473Y-70736399D01*
X115564086Y-70741467D01*
X115471188Y-70915266D01*
X115413975Y-71103870D01*
X115394659Y-71300000D01*
X114608144Y-71300000D01*
X114550144Y-71121492D01*
X114515795Y-71061999D01*
X114499322Y-70994101D01*
X114515796Y-70938000D01*
X114550144Y-70878508D01*
X114610262Y-70693482D01*
X114630598Y-70500000D01*
X114610262Y-70306518D01*
X114550144Y-70121492D01*
X114515795Y-70061999D01*
X114499322Y-69994101D01*
X114515796Y-69938000D01*
X114550144Y-69878508D01*
X114610262Y-69693482D01*
X114630598Y-69500000D01*
X114610262Y-69306518D01*
X114550144Y-69121492D01*
X114515795Y-69061999D01*
X114499322Y-68994101D01*
X114515796Y-68938000D01*
X114550144Y-68878508D01*
X114610262Y-68693482D01*
X114630598Y-68500000D01*
X114610262Y-68306518D01*
X114550144Y-68121492D01*
X114515795Y-68061999D01*
X114499322Y-67994101D01*
X114515796Y-67938000D01*
X114550144Y-67878508D01*
X114610262Y-67693482D01*
X114630598Y-67500000D01*
X114610262Y-67306518D01*
X114550144Y-67121492D01*
X114515795Y-67061999D01*
X114499322Y-66994101D01*
X114515796Y-66938000D01*
X114550144Y-66878508D01*
X114610262Y-66693482D01*
X114630598Y-66500000D01*
X114610262Y-66306518D01*
X114550144Y-66121492D01*
X114515795Y-66061999D01*
X114499322Y-65994101D01*
X114515796Y-65938000D01*
X114550144Y-65878508D01*
X114610262Y-65693482D01*
X114630598Y-65500000D01*
X114610262Y-65306518D01*
X114550144Y-65121492D01*
X114515795Y-65061999D01*
X114499322Y-64994101D01*
X114515796Y-64938000D01*
X114550144Y-64878508D01*
X114610262Y-64693482D01*
X114630598Y-64500000D01*
X114610262Y-64306518D01*
X114550144Y-64121492D01*
X114515795Y-64061999D01*
X114499322Y-63994101D01*
X114515796Y-63938000D01*
X114550144Y-63878508D01*
X114610262Y-63693482D01*
X114630598Y-63500000D01*
X114610262Y-63306518D01*
X114550144Y-63121492D01*
X114515795Y-63061999D01*
X114499322Y-62994101D01*
X114515796Y-62938000D01*
X114550144Y-62878508D01*
X114610262Y-62693482D01*
X114630598Y-62500000D01*
X114610262Y-62306518D01*
X114550144Y-62121492D01*
X114515795Y-62061999D01*
X114499322Y-61994101D01*
X114515796Y-61938000D01*
X114550144Y-61878508D01*
X114610262Y-61693482D01*
X114630598Y-61500000D01*
X114610262Y-61306518D01*
X114550144Y-61121492D01*
X114515795Y-61061999D01*
X114499322Y-60994101D01*
X114515796Y-60938000D01*
X114550144Y-60878508D01*
X114610262Y-60693482D01*
X114630598Y-60500000D01*
X114610262Y-60306518D01*
X114550144Y-60121492D01*
X114515795Y-60061999D01*
X114499322Y-59994101D01*
X114515796Y-59938000D01*
X114550144Y-59878508D01*
X114610262Y-59693482D01*
X114630598Y-59500000D01*
X114610262Y-59306518D01*
X114550144Y-59121492D01*
X114515795Y-59061999D01*
X114499322Y-58994101D01*
X114515796Y-58938000D01*
X114550144Y-58878508D01*
X114610262Y-58693482D01*
X114630598Y-58500000D01*
X114610262Y-58306518D01*
X114580150Y-58213844D01*
X114578156Y-58144006D01*
X114581895Y-58132210D01*
X114619091Y-58032483D01*
X114625500Y-57972873D01*
X114625499Y-57027128D01*
X114619091Y-56967517D01*
X114591022Y-56892261D01*
X114568797Y-56832671D01*
X114568793Y-56832664D01*
X114482547Y-56717455D01*
X114482544Y-56717452D01*
X114367335Y-56631206D01*
X114367328Y-56631202D01*
X114232482Y-56580908D01*
X114232483Y-56580908D01*
X114172883Y-56574501D01*
X114172881Y-56574500D01*
X114172873Y-56574500D01*
X114172864Y-56574500D01*
X113227129Y-56574500D01*
X113227123Y-56574501D01*
X113167516Y-56580908D01*
X113032671Y-56631202D01*
X113032664Y-56631206D01*
X112917455Y-56717452D01*
X112917452Y-56717455D01*
X112831206Y-56832664D01*
X112831202Y-56832671D01*
X112780908Y-56967517D01*
X112774501Y-57027116D01*
X112774501Y-57027123D01*
X112774500Y-57027135D01*
X112774500Y-57972870D01*
X112774501Y-57972876D01*
X112780908Y-58032483D01*
X112818099Y-58132195D01*
X112823083Y-58201887D01*
X112819848Y-58213845D01*
X112789740Y-58306511D01*
X112789738Y-58306516D01*
X112769402Y-58500000D01*
X112789738Y-58693483D01*
X112849856Y-58878510D01*
X112849857Y-58878511D01*
X112884203Y-58938000D01*
X112900676Y-59005900D01*
X112884203Y-59062000D01*
X112849857Y-59121488D01*
X112849856Y-59121489D01*
X112789738Y-59306516D01*
X112769402Y-59500000D01*
X112789738Y-59693483D01*
X112849856Y-59878510D01*
X112849857Y-59878511D01*
X112884203Y-59938000D01*
X112900676Y-60005900D01*
X112884203Y-60062000D01*
X112849857Y-60121488D01*
X112849856Y-60121489D01*
X112789738Y-60306516D01*
X112769402Y-60500000D01*
X112789738Y-60693483D01*
X112849856Y-60878510D01*
X112849857Y-60878511D01*
X112884203Y-60938000D01*
X112900676Y-61005900D01*
X112884203Y-61062000D01*
X112849857Y-61121488D01*
X112849856Y-61121489D01*
X112789738Y-61306516D01*
X112769402Y-61500000D01*
X112789738Y-61693483D01*
X112849856Y-61878510D01*
X112849857Y-61878511D01*
X112884203Y-61938000D01*
X112900676Y-62005900D01*
X112884203Y-62062000D01*
X112849857Y-62121488D01*
X112849856Y-62121489D01*
X112789738Y-62306516D01*
X112769402Y-62500000D01*
X112789738Y-62693483D01*
X112849856Y-62878510D01*
X112849857Y-62878511D01*
X112884203Y-62938000D01*
X112900676Y-63005900D01*
X112884203Y-63062000D01*
X112849857Y-63121488D01*
X112849856Y-63121489D01*
X112789738Y-63306516D01*
X112769402Y-63500000D01*
X112789738Y-63693483D01*
X112849856Y-63878510D01*
X112849857Y-63878511D01*
X112884203Y-63938000D01*
X112900676Y-64005900D01*
X112884203Y-64062000D01*
X112849857Y-64121488D01*
X112849856Y-64121489D01*
X112789738Y-64306516D01*
X112769402Y-64500000D01*
X112789738Y-64693483D01*
X112849856Y-64878510D01*
X112849857Y-64878511D01*
X112884203Y-64938000D01*
X112900676Y-65005900D01*
X112884203Y-65062000D01*
X112849857Y-65121488D01*
X112849856Y-65121489D01*
X112789738Y-65306516D01*
X112769402Y-65500000D01*
X112789738Y-65693483D01*
X112849856Y-65878510D01*
X112849857Y-65878511D01*
X112884203Y-65938000D01*
X112900676Y-66005900D01*
X112884203Y-66062000D01*
X112849857Y-66121488D01*
X112849856Y-66121489D01*
X112789738Y-66306516D01*
X112769402Y-66500000D01*
X112789738Y-66693483D01*
X112849856Y-66878510D01*
X112849857Y-66878511D01*
X112884203Y-66938000D01*
X112900676Y-67005900D01*
X112884203Y-67062000D01*
X112849857Y-67121488D01*
X112849856Y-67121489D01*
X112789738Y-67306516D01*
X112769402Y-67500000D01*
X112789738Y-67693483D01*
X112849856Y-67878510D01*
X112849857Y-67878511D01*
X112884203Y-67938000D01*
X112900676Y-68005900D01*
X112884203Y-68062000D01*
X112849857Y-68121488D01*
X112849856Y-68121489D01*
X112789738Y-68306516D01*
X112769402Y-68500000D01*
X112789738Y-68693483D01*
X112849856Y-68878510D01*
X112849857Y-68878511D01*
X112884203Y-68938000D01*
X112900676Y-69005900D01*
X112884203Y-69062000D01*
X112849857Y-69121488D01*
X112849856Y-69121489D01*
X112789738Y-69306516D01*
X112769402Y-69500000D01*
X112789738Y-69693483D01*
X112849856Y-69878510D01*
X112849857Y-69878511D01*
X112884203Y-69938000D01*
X112900676Y-70005900D01*
X112884203Y-70062000D01*
X112849857Y-70121488D01*
X112849856Y-70121489D01*
X112789738Y-70306516D01*
X112769402Y-70500000D01*
X112789738Y-70693483D01*
X112849856Y-70878510D01*
X112849857Y-70878511D01*
X112884203Y-70938000D01*
X112900676Y-71005900D01*
X112884203Y-71062000D01*
X112849857Y-71121488D01*
X112849856Y-71121489D01*
X112789738Y-71306516D01*
X112769402Y-71500000D01*
X107660500Y-71500000D01*
X107660499Y-70092128D01*
X107654091Y-70032517D01*
X107653152Y-70030000D01*
X107603797Y-69897671D01*
X107603793Y-69897664D01*
X107517547Y-69782455D01*
X107517544Y-69782452D01*
X107402335Y-69696206D01*
X107402328Y-69696202D01*
X107267482Y-69645908D01*
X107267483Y-69645908D01*
X107207883Y-69639501D01*
X107207881Y-69639500D01*
X107207873Y-69639500D01*
X107207864Y-69639500D01*
X105592129Y-69639500D01*
X105592123Y-69639501D01*
X105532516Y-69645908D01*
X105397671Y-69696202D01*
X105397664Y-69696206D01*
X105282455Y-69782452D01*
X105282452Y-69782455D01*
X105196206Y-69897664D01*
X105196202Y-69897671D01*
X105145908Y-70032517D01*
X105139501Y-70092116D01*
X105139501Y-70092123D01*
X105139500Y-70092135D01*
X105139500Y-71707870D01*
X98450500Y-71707870D01*
X98450500Y-68413705D01*
X98451809Y-68395735D01*
X98454806Y-68375273D01*
X98455289Y-68371977D01*
X98454993Y-68368599D01*
X98450972Y-68322630D01*
X98450500Y-68311822D01*
X98450500Y-68306296D01*
X98450500Y-68306291D01*
X98446901Y-68275509D01*
X98446536Y-68271929D01*
X98439999Y-68197201D01*
X98438539Y-68190129D01*
X98438597Y-68190116D01*
X98436965Y-68182757D01*
X98436906Y-68182772D01*
X98435242Y-68175753D01*
X98435241Y-68175745D01*
X98409591Y-68105273D01*
X98408408Y-68101868D01*
X98402818Y-68085000D01*
X109244341Y-68085000D01*
X109264936Y-68320403D01*
X109264938Y-68320413D01*
X109326094Y-68548655D01*
X109326096Y-68548659D01*
X109326097Y-68548663D01*
X109393628Y-68693483D01*
X109425965Y-68762830D01*
X109425967Y-68762834D01*
X109506965Y-68878510D01*
X109561505Y-68956401D01*
X109728599Y-69123495D01*
X109758926Y-69144730D01*
X109922165Y-69259032D01*
X109922167Y-69259033D01*
X109922170Y-69259035D01*
X110136337Y-69358903D01*
X110364592Y-69420063D01*
X110552918Y-69436539D01*
X110599999Y-69440659D01*
X110600000Y-69440659D01*
X110600001Y-69440659D01*
X110639234Y-69437226D01*
X110835408Y-69420063D01*
X111063663Y-69358903D01*
X111277830Y-69259035D01*
X111471401Y-69123495D01*
X111638495Y-68956401D01*
X111774035Y-68762830D01*
X111873903Y-68548663D01*
X111935063Y-68320408D01*
X111955659Y-68085000D01*
X111954484Y-68071575D01*
X111949438Y-68013891D01*
X111935063Y-67849592D01*
X111881516Y-67649750D01*
X111873905Y-67621344D01*
X111873904Y-67621343D01*
X111873903Y-67621337D01*
X111774035Y-67407171D01*
X111764991Y-67394254D01*
X111638494Y-67213597D01*
X111471402Y-67046506D01*
X111471396Y-67046501D01*
X111285842Y-66916575D01*
X111242217Y-66861998D01*
X111235023Y-66792500D01*
X111266546Y-66730145D01*
X111285842Y-66713425D01*
X111314323Y-66693482D01*
X111471401Y-66583495D01*
X111638495Y-66416401D01*
X111774035Y-66222830D01*
X111873903Y-66008663D01*
X111935063Y-65780408D01*
X111955659Y-65545000D01*
X111954484Y-65531575D01*
X111947566Y-65452500D01*
X111935063Y-65309592D01*
X111873903Y-65081337D01*
X111774035Y-64867171D01*
X111762362Y-64850499D01*
X111638494Y-64673597D01*
X111471402Y-64506506D01*
X111471401Y-64506505D01*
X111285405Y-64376269D01*
X111241781Y-64321692D01*
X111234588Y-64252193D01*
X111266110Y-64189839D01*
X111285405Y-64173119D01*
X111471082Y-64043105D01*
X111638105Y-63876082D01*
X111773600Y-63682578D01*
X111873429Y-63468492D01*
X111873432Y-63468486D01*
X111930636Y-63255000D01*
X111033686Y-63255000D01*
X111059493Y-63214844D01*
X111100000Y-63076889D01*
X111100000Y-62933111D01*
X111059493Y-62795156D01*
X111033686Y-62755000D01*
X111930636Y-62755000D01*
X111930635Y-62754999D01*
X111873432Y-62541513D01*
X111873429Y-62541507D01*
X111773600Y-62327422D01*
X111773599Y-62327420D01*
X111638113Y-62133926D01*
X111638108Y-62133920D01*
X111471082Y-61966894D01*
X111284968Y-61836575D01*
X111241344Y-61781998D01*
X111234151Y-61712499D01*
X111265673Y-61650145D01*
X111284968Y-61633425D01*
X111471082Y-61503105D01*
X111638105Y-61336082D01*
X111773600Y-61142578D01*
X111873429Y-60928492D01*
X111873432Y-60928486D01*
X111930636Y-60715000D01*
X111033686Y-60715000D01*
X111059493Y-60674844D01*
X111100000Y-60536889D01*
X111100000Y-60393111D01*
X111059493Y-60255156D01*
X111033686Y-60215000D01*
X111930636Y-60215000D01*
X111930635Y-60214999D01*
X111873432Y-60001513D01*
X111873429Y-60001507D01*
X111773600Y-59787422D01*
X111773599Y-59787420D01*
X111638113Y-59593926D01*
X111638108Y-59593920D01*
X111516053Y-59471865D01*
X111482568Y-59410542D01*
X111487552Y-59340850D01*
X111529424Y-59284917D01*
X111560400Y-59268002D01*
X111649847Y-59234641D01*
X111692326Y-59218798D01*
X111692326Y-59218797D01*
X111692331Y-59218796D01*
X111807546Y-59132546D01*
X111893796Y-59017331D01*
X111944091Y-58882483D01*
X111950500Y-58822873D01*
X111950499Y-57027128D01*
X111944091Y-56967517D01*
X111916022Y-56892261D01*
X111893797Y-56832671D01*
X111893793Y-56832664D01*
X111807547Y-56717455D01*
X111807544Y-56717452D01*
X111692335Y-56631206D01*
X111692328Y-56631202D01*
X111557482Y-56580908D01*
X111557483Y-56580908D01*
X111497883Y-56574501D01*
X111497881Y-56574500D01*
X111497873Y-56574500D01*
X111497864Y-56574500D01*
X109702129Y-56574500D01*
X109702123Y-56574501D01*
X109642516Y-56580908D01*
X109507671Y-56631202D01*
X109507664Y-56631206D01*
X109392455Y-56717452D01*
X109392452Y-56717455D01*
X109306206Y-56832664D01*
X109306202Y-56832671D01*
X109255908Y-56967517D01*
X109249501Y-57027116D01*
X109249501Y-57027123D01*
X109249500Y-57027135D01*
X109249500Y-58822870D01*
X109249501Y-58822876D01*
X109255908Y-58882483D01*
X109306202Y-59017328D01*
X109306206Y-59017335D01*
X109392452Y-59132544D01*
X109392455Y-59132547D01*
X109507664Y-59218793D01*
X109507671Y-59218797D01*
X109551114Y-59235000D01*
X109639598Y-59268002D01*
X109695531Y-59309873D01*
X109719949Y-59375337D01*
X109705098Y-59443610D01*
X109683947Y-59471865D01*
X109561886Y-59593926D01*
X109426400Y-59787420D01*
X109426399Y-59787422D01*
X109326570Y-60001507D01*
X109326567Y-60001513D01*
X109269364Y-60214999D01*
X109269364Y-60215000D01*
X110166314Y-60215000D01*
X110140507Y-60255156D01*
X110100000Y-60393111D01*
X110100000Y-60536889D01*
X110140507Y-60674844D01*
X110166314Y-60715000D01*
X109269364Y-60715000D01*
X109326567Y-60928486D01*
X109326570Y-60928492D01*
X109426399Y-61142578D01*
X109561894Y-61336082D01*
X109728917Y-61503105D01*
X109915031Y-61633425D01*
X109958656Y-61688003D01*
X109965848Y-61757501D01*
X109934326Y-61819856D01*
X109915031Y-61836575D01*
X109728922Y-61966890D01*
X109728920Y-61966891D01*
X109561891Y-62133920D01*
X109561886Y-62133926D01*
X109426400Y-62327420D01*
X109426399Y-62327422D01*
X109326570Y-62541507D01*
X109326567Y-62541513D01*
X109269364Y-62754999D01*
X109269364Y-62755000D01*
X110166314Y-62755000D01*
X110140507Y-62795156D01*
X110100000Y-62933111D01*
X110100000Y-63076889D01*
X110140507Y-63214844D01*
X110166314Y-63255000D01*
X109269364Y-63255000D01*
X109326567Y-63468486D01*
X109326570Y-63468492D01*
X109426399Y-63682578D01*
X109561894Y-63876082D01*
X109728917Y-64043105D01*
X109914595Y-64173119D01*
X109958219Y-64227696D01*
X109965412Y-64297195D01*
X109933890Y-64359549D01*
X109914595Y-64376269D01*
X109728594Y-64506508D01*
X109561505Y-64673597D01*
X109425965Y-64867169D01*
X109425964Y-64867171D01*
X109326098Y-65081335D01*
X109326094Y-65081344D01*
X109264938Y-65309586D01*
X109264936Y-65309596D01*
X109244341Y-65544999D01*
X109244341Y-65545000D01*
X109264936Y-65780403D01*
X109264938Y-65780413D01*
X109326094Y-66008655D01*
X109326096Y-66008659D01*
X109326097Y-66008663D01*
X109405907Y-66179815D01*
X109425965Y-66222830D01*
X109425967Y-66222834D01*
X109561501Y-66416395D01*
X109561506Y-66416402D01*
X109728597Y-66583493D01*
X109728603Y-66583498D01*
X109914158Y-66713425D01*
X109957783Y-66768002D01*
X109964977Y-66837500D01*
X109933454Y-66899855D01*
X109914158Y-66916575D01*
X109728597Y-67046505D01*
X109561505Y-67213597D01*
X109425965Y-67407169D01*
X109425964Y-67407171D01*
X109326098Y-67621335D01*
X109326094Y-67621344D01*
X109264938Y-67849586D01*
X109264936Y-67849596D01*
X109244341Y-68084999D01*
X109244341Y-68085000D01*
X98402818Y-68085000D01*
X98384814Y-68030666D01*
X98384813Y-68030665D01*
X98384813Y-68030663D01*
X98381764Y-68024124D01*
X98381817Y-68024099D01*
X98378531Y-68017311D01*
X98378479Y-68017338D01*
X98375236Y-68010882D01*
X98371959Y-68005900D01*
X98348348Y-67970000D01*
X98334025Y-67948222D01*
X98332088Y-67945181D01*
X98292714Y-67881347D01*
X98288234Y-67875681D01*
X98288280Y-67875643D01*
X98283519Y-67869799D01*
X98283474Y-67869838D01*
X98278831Y-67864305D01*
X98224290Y-67812848D01*
X98221703Y-67810335D01*
X97274861Y-66863493D01*
X97241376Y-66802170D01*
X97239139Y-66787962D01*
X97238817Y-66784694D01*
X97236747Y-66763669D01*
X97182396Y-66584499D01*
X97094136Y-66419375D01*
X97078645Y-66400499D01*
X97051333Y-66336188D01*
X97050500Y-66321836D01*
X97050500Y-64662229D01*
X97070185Y-64595190D01*
X97086814Y-64574553D01*
X98886507Y-62774859D01*
X98947828Y-62741376D01*
X98962029Y-62739140D01*
X98986331Y-62736747D01*
X99165501Y-62682396D01*
X99330625Y-62594136D01*
X99475357Y-62475357D01*
X99594136Y-62330625D01*
X99682396Y-62165501D01*
X99736747Y-61986331D01*
X99755099Y-61800000D01*
X99737371Y-61620000D01*
X99736747Y-61613668D01*
X99736746Y-61613666D01*
X99711347Y-61529937D01*
X99682396Y-61434499D01*
X99663957Y-61400001D01*
X105135187Y-61400001D01*
X105154401Y-61619626D01*
X105154402Y-61619634D01*
X105211463Y-61832587D01*
X105211466Y-61832593D01*
X105304638Y-62032402D01*
X105349694Y-62096750D01*
X105997676Y-61448769D01*
X106010021Y-61526712D01*
X106068264Y-61641020D01*
X106158980Y-61731736D01*
X106273288Y-61789979D01*
X106351229Y-61802323D01*
X105703247Y-62450304D01*
X105767593Y-62495359D01*
X105967406Y-62588533D01*
X105967412Y-62588536D01*
X106180365Y-62645597D01*
X106180373Y-62645598D01*
X106399998Y-62664813D01*
X106400002Y-62664813D01*
X106619626Y-62645598D01*
X106619634Y-62645597D01*
X106832587Y-62588536D01*
X106832598Y-62588532D01*
X107032402Y-62495362D01*
X107032410Y-62495358D01*
X107096751Y-62450305D01*
X107096751Y-62450304D01*
X106448771Y-61802323D01*
X106526712Y-61789979D01*
X106641020Y-61731736D01*
X106731736Y-61641020D01*
X106789979Y-61526712D01*
X106802323Y-61448770D01*
X107450304Y-62096751D01*
X107450305Y-62096751D01*
X107495358Y-62032410D01*
X107495362Y-62032402D01*
X107588532Y-61832598D01*
X107588536Y-61832587D01*
X107645597Y-61619634D01*
X107645598Y-61619626D01*
X107664813Y-61400001D01*
X107664813Y-61399998D01*
X107645598Y-61180373D01*
X107645597Y-61180366D01*
X107588533Y-60967404D01*
X107495360Y-60767595D01*
X107495359Y-60767593D01*
X107450304Y-60703248D01*
X107450304Y-60703247D01*
X106802323Y-61351228D01*
X106789979Y-61273288D01*
X106731736Y-61158980D01*
X106641020Y-61068264D01*
X106526712Y-61010021D01*
X106448770Y-60997676D01*
X107096751Y-60349694D01*
X107032402Y-60304638D01*
X106832593Y-60211466D01*
X106832587Y-60211463D01*
X106619634Y-60154402D01*
X106619626Y-60154401D01*
X106400002Y-60135187D01*
X106399998Y-60135187D01*
X106180373Y-60154401D01*
X106180366Y-60154402D01*
X105967404Y-60211466D01*
X105767594Y-60304640D01*
X105703248Y-60349694D01*
X106351230Y-60997676D01*
X106273288Y-61010021D01*
X106158980Y-61068264D01*
X106068264Y-61158980D01*
X106010021Y-61273288D01*
X105997676Y-61351230D01*
X105349694Y-60703248D01*
X105304640Y-60767594D01*
X105211466Y-60967404D01*
X105154402Y-61180366D01*
X105154401Y-61180373D01*
X105135187Y-61399998D01*
X105135187Y-61400001D01*
X99663957Y-61400001D01*
X99663956Y-61400000D01*
X99594137Y-61269376D01*
X99594135Y-61269373D01*
X99475357Y-61124642D01*
X99330626Y-61005864D01*
X99330623Y-61005862D01*
X99165502Y-60917604D01*
X98986336Y-60863254D01*
X98986328Y-60863252D01*
X98962030Y-60860859D01*
X98897243Y-60834697D01*
X98886505Y-60825137D01*
X95976819Y-57915451D01*
X95943334Y-57854128D01*
X95940500Y-57827770D01*
X95940500Y-57743442D01*
X95960185Y-57676403D01*
X96012989Y-57630648D01*
X96082147Y-57620704D01*
X96096586Y-57623666D01*
X96180280Y-57646092D01*
X96337222Y-57659822D01*
X96399998Y-57665315D01*
X96400000Y-57665315D01*
X96400002Y-57665315D01*
X96455059Y-57660498D01*
X96619720Y-57646092D01*
X96832763Y-57589007D01*
X97032658Y-57495795D01*
X97213329Y-57369288D01*
X97369288Y-57213329D01*
X97373110Y-57207870D01*
X105139500Y-57207870D01*
X105139501Y-57207876D01*
X105145908Y-57267483D01*
X105196202Y-57402328D01*
X105196206Y-57402335D01*
X105282452Y-57517544D01*
X105282455Y-57517547D01*
X105397664Y-57603793D01*
X105397671Y-57603797D01*
X105532517Y-57654091D01*
X105532516Y-57654091D01*
X105539444Y-57654835D01*
X105592127Y-57660500D01*
X107207872Y-57660499D01*
X107267483Y-57654091D01*
X107402331Y-57603796D01*
X107517546Y-57517546D01*
X107603796Y-57402331D01*
X107654091Y-57267483D01*
X107660500Y-57207873D01*
X107660499Y-55592128D01*
X107654091Y-55532517D01*
X107653385Y-55530625D01*
X107603797Y-55397671D01*
X107603793Y-55397664D01*
X107517547Y-55282455D01*
X107517544Y-55282452D01*
X107402335Y-55196206D01*
X107402328Y-55196202D01*
X107267482Y-55145908D01*
X107267483Y-55145908D01*
X107207883Y-55139501D01*
X107207881Y-55139500D01*
X107207873Y-55139500D01*
X107207864Y-55139500D01*
X105592129Y-55139500D01*
X105592123Y-55139501D01*
X105532516Y-55145908D01*
X105397671Y-55196202D01*
X105397664Y-55196206D01*
X105282455Y-55282452D01*
X105282452Y-55282455D01*
X105196206Y-55397664D01*
X105196202Y-55397671D01*
X105145908Y-55532517D01*
X105139809Y-55589250D01*
X105139501Y-55592123D01*
X105139500Y-55592135D01*
X105139500Y-57207870D01*
X97373110Y-57207870D01*
X97495795Y-57032658D01*
X97589007Y-56832763D01*
X97646092Y-56619720D01*
X97665315Y-56400000D01*
X97646092Y-56180280D01*
X97589007Y-55967237D01*
X97495795Y-55767343D01*
X97369288Y-55586671D01*
X97369286Y-55586668D01*
X97213330Y-55430712D01*
X97032662Y-55304207D01*
X97032654Y-55304203D01*
X96832769Y-55210995D01*
X96832755Y-55210990D01*
X96619724Y-55153909D01*
X96619722Y-55153908D01*
X96619720Y-55153908D01*
X96619718Y-55153907D01*
X96619714Y-55153907D01*
X96400002Y-55134685D01*
X96399998Y-55134685D01*
X96200051Y-55152178D01*
X96131551Y-55138411D01*
X96081368Y-55089796D01*
X96065435Y-55021767D01*
X96079887Y-54970194D01*
X96082396Y-54965501D01*
X96136747Y-54786331D01*
X96155099Y-54600000D01*
X96136747Y-54413669D01*
X96082396Y-54234499D01*
X96080062Y-54230132D01*
X95994137Y-54069376D01*
X95994135Y-54069373D01*
X95875357Y-53924642D01*
X95730626Y-53805864D01*
X95730623Y-53805862D01*
X95565502Y-53717604D01*
X95386333Y-53663253D01*
X95386331Y-53663252D01*
X95200000Y-53644901D01*
X95013668Y-53663252D01*
X95013666Y-53663253D01*
X94834497Y-53717604D01*
X94669376Y-53805862D01*
X94669373Y-53805864D01*
X94524642Y-53924642D01*
X94405864Y-54069373D01*
X94405862Y-54069376D01*
X94317604Y-54234497D01*
X94263253Y-54413666D01*
X94263252Y-54413668D01*
X94244901Y-54600000D01*
X94263252Y-54786331D01*
X94263253Y-54786333D01*
X94317604Y-54965502D01*
X94405860Y-55130619D01*
X94405866Y-55130628D01*
X94411350Y-55137310D01*
X94438666Y-55201619D01*
X94439500Y-55215978D01*
X94439500Y-58126294D01*
X94438191Y-58144263D01*
X94434710Y-58168025D01*
X94439028Y-58217368D01*
X94439500Y-58228176D01*
X94439500Y-58233711D01*
X94443098Y-58264495D01*
X94443464Y-58268083D01*
X94450000Y-58342791D01*
X94451461Y-58349867D01*
X94451403Y-58349878D01*
X94453034Y-58357237D01*
X94453092Y-58357224D01*
X94454757Y-58364249D01*
X94454758Y-58364254D01*
X94454759Y-58364255D01*
X94469176Y-58403868D01*
X94480400Y-58434705D01*
X94481582Y-58438107D01*
X94505182Y-58509326D01*
X94508236Y-58515874D01*
X94508182Y-58515898D01*
X94511470Y-58522688D01*
X94511521Y-58522663D01*
X94514761Y-58529114D01*
X94555979Y-58591784D01*
X94557889Y-58594782D01*
X94588972Y-58645174D01*
X94597289Y-58658658D01*
X94601766Y-58664319D01*
X94601719Y-58664356D01*
X94606482Y-58670202D01*
X94606528Y-58670164D01*
X94611173Y-58675699D01*
X94665707Y-58727149D01*
X94668295Y-58729663D01*
X95966401Y-60027769D01*
X95999886Y-60089092D01*
X95994902Y-60158784D01*
X95953030Y-60214717D01*
X95931125Y-60227832D01*
X95767344Y-60304204D01*
X95767342Y-60304205D01*
X95586668Y-60430713D01*
X95430713Y-60586668D01*
X95304205Y-60767342D01*
X95304204Y-60767344D01*
X95210994Y-60967235D01*
X95210990Y-60967244D01*
X95153909Y-61180275D01*
X95153907Y-61180285D01*
X95134685Y-61399998D01*
X95134685Y-61400002D01*
X95146052Y-61529937D01*
X95132285Y-61598437D01*
X95110205Y-61628425D01*
X90576795Y-66161836D01*
X90515472Y-66195321D01*
X90445780Y-66190337D01*
X90389847Y-66148465D01*
X90365430Y-66083001D01*
X90367824Y-66048374D01*
X90370078Y-66037770D01*
X90400500Y-65894646D01*
X90400500Y-65705354D01*
X90361144Y-65520197D01*
X90355954Y-65508541D01*
X90284151Y-65347270D01*
X90284148Y-65347265D01*
X90172888Y-65194129D01*
X90119579Y-65146129D01*
X90032216Y-65067467D01*
X90032214Y-65067466D01*
X90031307Y-65066649D01*
X89994658Y-65007162D01*
X89995989Y-64937305D01*
X90034875Y-64879257D01*
X90098972Y-64851447D01*
X90114276Y-64850499D01*
X90397872Y-64850499D01*
X90457483Y-64844091D01*
X90592331Y-64793796D01*
X90707546Y-64707546D01*
X90793796Y-64592331D01*
X90844091Y-64457483D01*
X90850500Y-64397873D01*
X90850499Y-62602128D01*
X90844091Y-62542517D01*
X90843714Y-62541507D01*
X90793797Y-62407671D01*
X90793793Y-62407664D01*
X90707547Y-62292455D01*
X90707544Y-62292452D01*
X90592335Y-62206206D01*
X90592328Y-62206202D01*
X90457482Y-62155908D01*
X90457483Y-62155908D01*
X90397883Y-62149501D01*
X90397881Y-62149500D01*
X90397873Y-62149500D01*
X90397864Y-62149500D01*
X88602129Y-62149500D01*
X88602123Y-62149501D01*
X88542516Y-62155908D01*
X88407671Y-62206202D01*
X88407664Y-62206206D01*
X88292455Y-62292452D01*
X88292452Y-62292455D01*
X88206206Y-62407664D01*
X88206202Y-62407671D01*
X88155908Y-62542517D01*
X88150359Y-62594135D01*
X88149501Y-62602123D01*
X88149500Y-62602135D01*
X88149500Y-64397870D01*
X88149501Y-64397876D01*
X88155908Y-64457483D01*
X88206202Y-64592328D01*
X88206206Y-64592335D01*
X88292452Y-64707544D01*
X88292455Y-64707547D01*
X88407664Y-64793793D01*
X88407671Y-64793797D01*
X88542517Y-64844091D01*
X88542516Y-64844091D01*
X88549444Y-64844835D01*
X88602127Y-64850500D01*
X88885721Y-64850499D01*
X88952758Y-64870183D01*
X88998513Y-64922987D01*
X89008457Y-64992146D01*
X88979432Y-65055701D01*
X88968692Y-65066648D01*
X88827112Y-65194128D01*
X88827111Y-65194129D01*
X88715851Y-65347265D01*
X88715848Y-65347270D01*
X88638857Y-65520192D01*
X88638855Y-65520197D01*
X88599500Y-65705354D01*
X88599500Y-65894647D01*
X88632461Y-66049720D01*
X88627145Y-66119387D01*
X88585007Y-66175120D01*
X88519427Y-66199225D01*
X88511171Y-66199500D01*
X88112229Y-66199500D01*
X88045190Y-66179815D01*
X88024548Y-66163181D01*
X87986818Y-66125451D01*
X87953333Y-66064128D01*
X87950499Y-66037770D01*
X87950499Y-64902129D01*
X87950498Y-64902123D01*
X87944091Y-64842516D01*
X87893797Y-64707671D01*
X87893793Y-64707664D01*
X87807547Y-64592455D01*
X87807544Y-64592452D01*
X87692335Y-64506206D01*
X87692328Y-64506202D01*
X87557482Y-64455908D01*
X87557483Y-64455908D01*
X87497883Y-64449501D01*
X87497881Y-64449500D01*
X87497873Y-64449500D01*
X87497864Y-64449500D01*
X85702129Y-64449500D01*
X85702123Y-64449501D01*
X85642516Y-64455908D01*
X85507671Y-64506202D01*
X85507669Y-64506203D01*
X85457159Y-64544015D01*
X85391694Y-64568431D01*
X85323421Y-64553579D01*
X85301646Y-64538460D01*
X85141253Y-64399478D01*
X84959249Y-64294398D01*
X84959245Y-64294396D01*
X84959244Y-64294396D01*
X84760633Y-64225656D01*
X84552602Y-64195746D01*
X84552598Y-64195746D01*
X84342672Y-64205745D01*
X84138421Y-64255296D01*
X84138417Y-64255298D01*
X83947256Y-64342598D01*
X83947251Y-64342601D01*
X83776046Y-64464515D01*
X83776040Y-64464520D01*
X83631014Y-64616620D01*
X83517388Y-64793425D01*
X83439274Y-64988544D01*
X83399651Y-65194129D01*
X83399500Y-65194915D01*
X83399500Y-66352425D01*
X81700500Y-66352425D01*
X81700500Y-63931004D01*
X81673581Y-63795677D01*
X81673580Y-63795676D01*
X81673580Y-63795672D01*
X81673578Y-63795667D01*
X81620778Y-63668195D01*
X81620771Y-63668182D01*
X81544114Y-63553458D01*
X81544111Y-63553454D01*
X81446545Y-63455888D01*
X81446541Y-63455885D01*
X81331817Y-63379228D01*
X81331804Y-63379221D01*
X81204332Y-63326421D01*
X81204322Y-63326418D01*
X81068995Y-63299500D01*
X81068993Y-63299500D01*
X81056173Y-63299500D01*
X80424500Y-63299500D01*
X80357461Y-63279815D01*
X80311706Y-63227011D01*
X80300500Y-63175500D01*
X80300500Y-60894645D01*
X81099500Y-60894645D01*
X81138855Y-61079802D01*
X81138857Y-61079807D01*
X81215848Y-61252729D01*
X81215851Y-61252734D01*
X81322846Y-61400000D01*
X81327112Y-61405871D01*
X81467784Y-61532533D01*
X81631716Y-61627179D01*
X81811744Y-61685674D01*
X81952808Y-61700500D01*
X81952812Y-61700500D01*
X82047188Y-61700500D01*
X82047192Y-61700500D01*
X82188256Y-61685674D01*
X82368284Y-61627179D01*
X82532216Y-61532533D01*
X82672888Y-61405871D01*
X82784151Y-61252730D01*
X82861144Y-61079803D01*
X82900500Y-60894646D01*
X82900500Y-60894645D01*
X83599500Y-60894645D01*
X83638855Y-61079802D01*
X83638857Y-61079807D01*
X83715848Y-61252729D01*
X83715851Y-61252734D01*
X83822846Y-61400000D01*
X83827112Y-61405871D01*
X83967784Y-61532533D01*
X84131716Y-61627179D01*
X84311744Y-61685674D01*
X84452808Y-61700500D01*
X84452812Y-61700500D01*
X84547188Y-61700500D01*
X84547192Y-61700500D01*
X84688256Y-61685674D01*
X84868284Y-61627179D01*
X85032216Y-61532533D01*
X85172888Y-61405871D01*
X85284151Y-61252730D01*
X85361144Y-61079803D01*
X85400500Y-60894646D01*
X85400500Y-60747401D01*
X87895746Y-60747401D01*
X87905745Y-60957327D01*
X87955296Y-61161578D01*
X87955298Y-61161582D01*
X88042598Y-61352743D01*
X88042601Y-61352748D01*
X88042602Y-61352750D01*
X88042604Y-61352753D01*
X88105627Y-61441256D01*
X88164515Y-61523953D01*
X88164520Y-61523959D01*
X88316620Y-61668985D01*
X88411578Y-61730011D01*
X88493428Y-61782613D01*
X88688543Y-61860725D01*
X88791729Y-61880612D01*
X88894914Y-61900500D01*
X88894915Y-61900500D01*
X90052419Y-61900500D01*
X90052425Y-61900500D01*
X90209218Y-61885528D01*
X90410875Y-61826316D01*
X90597682Y-61730011D01*
X90762886Y-61600092D01*
X90900519Y-61441256D01*
X90904422Y-61434497D01*
X91005601Y-61259249D01*
X91005600Y-61259249D01*
X91005604Y-61259244D01*
X91074344Y-61060633D01*
X91104254Y-60852602D01*
X91094254Y-60642670D01*
X91044704Y-60438424D01*
X91042504Y-60433607D01*
X90957401Y-60247256D01*
X90957398Y-60247251D01*
X90957397Y-60247250D01*
X90957396Y-60247247D01*
X90835486Y-60076048D01*
X90835484Y-60076046D01*
X90835479Y-60076040D01*
X90683379Y-59931014D01*
X90506574Y-59817388D01*
X90311455Y-59739274D01*
X90105086Y-59699500D01*
X90105085Y-59699500D01*
X88947575Y-59699500D01*
X88790782Y-59714472D01*
X88790778Y-59714473D01*
X88589127Y-59773683D01*
X88402313Y-59869991D01*
X88237116Y-59999905D01*
X88237112Y-59999909D01*
X88099478Y-60158746D01*
X87994398Y-60340750D01*
X87925656Y-60539365D01*
X87925656Y-60539367D01*
X87910804Y-60642670D01*
X87895746Y-60747401D01*
X85400500Y-60747401D01*
X85400500Y-60705354D01*
X85361144Y-60520197D01*
X85347994Y-60490663D01*
X85284151Y-60347270D01*
X85284148Y-60347265D01*
X85172888Y-60194129D01*
X85148810Y-60172449D01*
X85032216Y-60067467D01*
X84868284Y-59972821D01*
X84868277Y-59972818D01*
X84688259Y-59914327D01*
X84688256Y-59914326D01*
X84547192Y-59899500D01*
X84452808Y-59899500D01*
X84311744Y-59914326D01*
X84311741Y-59914326D01*
X84311740Y-59914327D01*
X84131722Y-59972818D01*
X84131715Y-59972821D01*
X83967785Y-60067466D01*
X83827111Y-60194129D01*
X83715851Y-60347265D01*
X83715848Y-60347270D01*
X83638857Y-60520192D01*
X83638855Y-60520197D01*
X83599500Y-60705354D01*
X83599500Y-60894645D01*
X82900500Y-60894645D01*
X82900500Y-60705354D01*
X82861144Y-60520197D01*
X82847994Y-60490663D01*
X82784151Y-60347270D01*
X82784148Y-60347265D01*
X82672888Y-60194129D01*
X82648810Y-60172449D01*
X82532216Y-60067467D01*
X82368284Y-59972821D01*
X82368277Y-59972818D01*
X82188259Y-59914327D01*
X82188256Y-59914326D01*
X82047192Y-59899500D01*
X81952808Y-59899500D01*
X81811744Y-59914326D01*
X81811741Y-59914326D01*
X81811740Y-59914327D01*
X81631722Y-59972818D01*
X81631715Y-59972821D01*
X81467785Y-60067466D01*
X81327111Y-60194129D01*
X81215851Y-60347265D01*
X81215848Y-60347270D01*
X81138857Y-60520192D01*
X81138855Y-60520197D01*
X81099500Y-60705354D01*
X81099500Y-60894645D01*
X80300500Y-60894645D01*
X80300500Y-58000005D01*
X86494357Y-58000005D01*
X86514890Y-58247812D01*
X86514892Y-58247824D01*
X86575936Y-58488881D01*
X86675826Y-58716606D01*
X86811833Y-58924782D01*
X86811836Y-58924785D01*
X86980256Y-59107738D01*
X87176491Y-59260474D01*
X87395190Y-59378828D01*
X87630386Y-59459571D01*
X87875665Y-59500500D01*
X88124335Y-59500500D01*
X88369614Y-59459571D01*
X88604810Y-59378828D01*
X88823509Y-59260474D01*
X89019744Y-59107738D01*
X89188164Y-58924785D01*
X89324173Y-58716607D01*
X89424063Y-58488881D01*
X89485108Y-58247821D01*
X89486277Y-58233711D01*
X89505643Y-58000005D01*
X89505643Y-57999994D01*
X89485109Y-57752187D01*
X89485107Y-57752175D01*
X89424063Y-57511118D01*
X89324173Y-57283393D01*
X89188166Y-57075217D01*
X89148991Y-57032662D01*
X89019744Y-56892262D01*
X88823509Y-56739526D01*
X88823507Y-56739525D01*
X88823506Y-56739524D01*
X88604811Y-56621172D01*
X88604802Y-56621169D01*
X88369616Y-56540429D01*
X88124335Y-56499500D01*
X87875665Y-56499500D01*
X87630383Y-56540429D01*
X87395197Y-56621169D01*
X87395188Y-56621172D01*
X87176493Y-56739524D01*
X86980257Y-56892261D01*
X86811833Y-57075217D01*
X86675826Y-57283393D01*
X86575936Y-57511118D01*
X86514892Y-57752175D01*
X86514890Y-57752187D01*
X86494357Y-57999994D01*
X86494357Y-58000005D01*
X80300500Y-58000005D01*
X80300500Y-54069594D01*
X81095686Y-54069594D01*
X81126114Y-54346125D01*
X81196478Y-54615272D01*
X81280787Y-54813669D01*
X81305284Y-54871314D01*
X81383820Y-55000000D01*
X81450205Y-55108776D01*
X81450212Y-55108786D01*
X81628161Y-55322616D01*
X81628167Y-55322621D01*
X81748805Y-55430712D01*
X81835357Y-55508263D01*
X82067373Y-55661763D01*
X82319267Y-55779846D01*
X82319274Y-55779848D01*
X82319276Y-55779849D01*
X82585657Y-55859992D01*
X82585664Y-55859993D01*
X82585669Y-55859995D01*
X82860901Y-55900500D01*
X82860906Y-55900500D01*
X83069461Y-55900500D01*
X83069463Y-55900500D01*
X83069467Y-55900499D01*
X83069481Y-55900499D01*
X83116953Y-55897024D01*
X83277455Y-55885277D01*
X83548997Y-55824788D01*
X83808838Y-55725408D01*
X84051440Y-55589253D01*
X84271632Y-55419226D01*
X84292421Y-55397664D01*
X84323429Y-55365502D01*
X84464722Y-55218951D01*
X84626593Y-54992696D01*
X84732693Y-54786331D01*
X84753790Y-54745298D01*
X84753794Y-54745288D01*
X84753797Y-54745283D01*
X84843621Y-54481986D01*
X84894152Y-54208416D01*
X84904313Y-53930404D01*
X84873886Y-53653876D01*
X84803520Y-53384724D01*
X84694716Y-53128686D01*
X84549792Y-52891219D01*
X84534954Y-52873389D01*
X84371838Y-52677383D01*
X84371832Y-52677378D01*
X84164643Y-52491737D01*
X83932629Y-52338238D01*
X83932627Y-52338237D01*
X83680733Y-52220154D01*
X83680728Y-52220152D01*
X83680723Y-52220150D01*
X83414342Y-52140007D01*
X83414328Y-52140004D01*
X83291504Y-52121929D01*
X83139099Y-52099500D01*
X82930537Y-52099500D01*
X82930518Y-52099500D01*
X82722545Y-52114723D01*
X82722535Y-52114724D01*
X82451007Y-52175210D01*
X82450997Y-52175213D01*
X82191161Y-52274592D01*
X81948561Y-52410746D01*
X81948556Y-52410749D01*
X81728369Y-52580772D01*
X81728359Y-52580781D01*
X81535281Y-52781045D01*
X81535274Y-52781053D01*
X81373412Y-53007295D01*
X81373405Y-53007307D01*
X81246209Y-53254701D01*
X81246205Y-53254711D01*
X81156379Y-53518012D01*
X81156378Y-53518018D01*
X81105848Y-53791584D01*
X81105847Y-53791591D01*
X81095686Y-54069594D01*
X80300500Y-54069594D01*
X80300500Y-50424500D01*
X80320185Y-50357461D01*
X80372989Y-50311706D01*
X80424500Y-50300500D01*
X86782038Y-50300500D01*
X86849077Y-50320185D01*
G37*
%TD.AperFunction*%
%TD*%
M02*
