%TF.GenerationSoftware,KiCad,Pcbnew,7.0.10-7.0.10~ubuntu22.04.1*%
%TF.CreationDate,2024-01-08T13:23:45+01:00*%
%TF.ProjectId,reparaturhelfer,72657061-7261-4747-9572-68656c666572,rev?*%
%TF.SameCoordinates,Original*%
%TF.FileFunction,Paste,Bot*%
%TF.FilePolarity,Positive*%
%FSLAX46Y46*%
G04 Gerber Fmt 4.6, Leading zero omitted, Abs format (unit mm)*
G04 Created by KiCad (PCBNEW 7.0.10-7.0.10~ubuntu22.04.1) date 2024-01-08 13:23:45*
%MOMM*%
%LPD*%
G01*
G04 APERTURE LIST*
G04 Aperture macros list*
%AMRoundRect*
0 Rectangle with rounded corners*
0 $1 Rounding radius*
0 $2 $3 $4 $5 $6 $7 $8 $9 X,Y pos of 4 corners*
0 Add a 4 corners polygon primitive as box body*
4,1,4,$2,$3,$4,$5,$6,$7,$8,$9,$2,$3,0*
0 Add four circle primitives for the rounded corners*
1,1,$1+$1,$2,$3*
1,1,$1+$1,$4,$5*
1,1,$1+$1,$6,$7*
1,1,$1+$1,$8,$9*
0 Add four rect primitives between the rounded corners*
20,1,$1+$1,$2,$3,$4,$5,0*
20,1,$1+$1,$4,$5,$6,$7,0*
20,1,$1+$1,$6,$7,$8,$9,0*
20,1,$1+$1,$8,$9,$2,$3,0*%
G04 Aperture macros list end*
%ADD10RoundRect,0.200000X-0.275000X0.200000X-0.275000X-0.200000X0.275000X-0.200000X0.275000X0.200000X0*%
%ADD11RoundRect,0.200000X0.275000X-0.200000X0.275000X0.200000X-0.275000X0.200000X-0.275000X-0.200000X0*%
%ADD12RoundRect,0.225000X0.250000X-0.225000X0.250000X0.225000X-0.250000X0.225000X-0.250000X-0.225000X0*%
%ADD13RoundRect,0.225000X-0.250000X0.225000X-0.250000X-0.225000X0.250000X-0.225000X0.250000X0.225000X0*%
%ADD14RoundRect,0.225000X0.225000X0.250000X-0.225000X0.250000X-0.225000X-0.250000X0.225000X-0.250000X0*%
%ADD15RoundRect,0.250000X-0.250000X-0.475000X0.250000X-0.475000X0.250000X0.475000X-0.250000X0.475000X0*%
%ADD16RoundRect,0.250000X0.250000X0.475000X-0.250000X0.475000X-0.250000X-0.475000X0.250000X-0.475000X0*%
%ADD17RoundRect,0.250000X-0.325000X-0.650000X0.325000X-0.650000X0.325000X0.650000X-0.325000X0.650000X0*%
%ADD18R,2.500000X1.800000*%
%ADD19RoundRect,0.250000X-0.337500X-0.475000X0.337500X-0.475000X0.337500X0.475000X-0.337500X0.475000X0*%
%ADD20RoundRect,0.200000X0.200000X0.275000X-0.200000X0.275000X-0.200000X-0.275000X0.200000X-0.275000X0*%
%ADD21R,2.750000X3.050000*%
%ADD22R,1.200000X2.200000*%
%ADD23R,2.000000X1.300000*%
%ADD24R,2.000000X2.000000*%
%ADD25RoundRect,0.150000X-0.150000X0.825000X-0.150000X-0.825000X0.150000X-0.825000X0.150000X0.825000X0*%
%ADD26RoundRect,0.250000X-0.412500X-1.100000X0.412500X-1.100000X0.412500X1.100000X-0.412500X1.100000X0*%
%ADD27RoundRect,0.250000X0.325000X0.650000X-0.325000X0.650000X-0.325000X-0.650000X0.325000X-0.650000X0*%
G04 APERTURE END LIST*
D10*
%TO.C,R204*%
X96800000Y-51675000D03*
X96800000Y-53325000D03*
%TD*%
D11*
%TO.C,R203*%
X95200000Y-53325000D03*
X95200000Y-51675000D03*
%TD*%
D12*
%TO.C,C213*%
X104600000Y-73675000D03*
X104600000Y-72125000D03*
%TD*%
D13*
%TO.C,C216*%
X105200000Y-63225000D03*
X105200000Y-64775000D03*
%TD*%
D11*
%TO.C,R215*%
X104900000Y-77425000D03*
X104900000Y-75775000D03*
%TD*%
D10*
%TO.C,R218*%
X106900000Y-67375000D03*
X106900000Y-69025000D03*
%TD*%
D14*
%TO.C,C207*%
X113675000Y-76900000D03*
X112125000Y-76900000D03*
%TD*%
D15*
%TO.C,C202*%
X95150000Y-63400000D03*
X97050000Y-63400000D03*
%TD*%
D16*
%TO.C,C212*%
X95350000Y-68800000D03*
X93450000Y-68800000D03*
%TD*%
D11*
%TO.C,R209*%
X106500000Y-59825000D03*
X106500000Y-58175000D03*
%TD*%
D10*
%TO.C,R207*%
X104900000Y-55275000D03*
X104900000Y-56925000D03*
%TD*%
%TO.C,R211*%
X96400000Y-72575000D03*
X96400000Y-74225000D03*
%TD*%
D14*
%TO.C,C203*%
X120675000Y-71800000D03*
X119125000Y-71800000D03*
%TD*%
D17*
%TO.C,C205*%
X123525000Y-72700000D03*
X126475000Y-72700000D03*
%TD*%
D18*
%TO.C,D201*%
X121100000Y-74300000D03*
X117100000Y-74300000D03*
%TD*%
D19*
%TO.C,C401*%
X85662500Y-113000000D03*
X87737500Y-113000000D03*
%TD*%
D10*
%TO.C,R205*%
X101200000Y-58800000D03*
X101200000Y-60450000D03*
%TD*%
D16*
%TO.C,C209*%
X107050000Y-53300000D03*
X105150000Y-53300000D03*
%TD*%
D11*
%TO.C,R201*%
X96400000Y-59725000D03*
X96400000Y-58075000D03*
%TD*%
%TO.C,R212*%
X98800000Y-73725000D03*
X98800000Y-72075000D03*
%TD*%
D10*
%TO.C,R206*%
X102900000Y-58800000D03*
X102900000Y-60450000D03*
%TD*%
D19*
%TO.C,C403*%
X85662500Y-117250000D03*
X87737500Y-117250000D03*
%TD*%
D12*
%TO.C,C208*%
X104600000Y-60400000D03*
X104600000Y-58850000D03*
%TD*%
D10*
%TO.C,R202*%
X98800000Y-58775000D03*
X98800000Y-60425000D03*
%TD*%
D20*
%TO.C,R216*%
X95225000Y-67000000D03*
X93575000Y-67000000D03*
%TD*%
D21*
%TO.C,U201*%
X124175000Y-62675000D03*
X127225000Y-62675000D03*
X124175000Y-59325000D03*
X127225000Y-59325000D03*
D22*
X127980000Y-67300000D03*
X125700000Y-67300000D03*
X123420000Y-67300000D03*
%TD*%
D17*
%TO.C,C206*%
X125125000Y-70100000D03*
X128075000Y-70100000D03*
%TD*%
D23*
%TO.C,RV202*%
X98900000Y-76750000D03*
D24*
X102900000Y-77900000D03*
D23*
X98900000Y-79050000D03*
%TD*%
D11*
%TO.C,R214*%
X102900000Y-73725000D03*
X102900000Y-72075000D03*
%TD*%
D12*
%TO.C,C201*%
X97630000Y-66950000D03*
X97630000Y-65400000D03*
%TD*%
D25*
%TO.C,U202*%
X99320000Y-63725000D03*
X100590000Y-63725000D03*
X101860000Y-63725000D03*
X103130000Y-63725000D03*
X103130000Y-68675000D03*
X101860000Y-68675000D03*
X100590000Y-68675000D03*
X99320000Y-68675000D03*
%TD*%
D20*
%TO.C,R208*%
X95925000Y-65400000D03*
X94275000Y-65400000D03*
%TD*%
D13*
%TO.C,C215*%
X105200000Y-67425000D03*
X105200000Y-68975000D03*
%TD*%
D18*
%TO.C,D203*%
X113400000Y-74300000D03*
X109400000Y-74300000D03*
%TD*%
%TO.C,D202*%
X121100000Y-79400000D03*
X117100000Y-79400000D03*
%TD*%
D11*
%TO.C,R213*%
X101200000Y-73725000D03*
X101200000Y-72075000D03*
%TD*%
D16*
%TO.C,C214*%
X107050000Y-79200000D03*
X105150000Y-79200000D03*
%TD*%
D26*
%TO.C,C405*%
X85037500Y-121500000D03*
X88162500Y-121500000D03*
%TD*%
D27*
%TO.C,C210*%
X112875000Y-55400000D03*
X109925000Y-55400000D03*
%TD*%
D23*
%TO.C,RV201*%
X98900000Y-53650000D03*
D24*
X102900000Y-54800000D03*
D23*
X98900000Y-55950000D03*
%TD*%
D11*
%TO.C,R210*%
X108100000Y-59825000D03*
X108100000Y-58175000D03*
%TD*%
D18*
%TO.C,D204*%
X113400000Y-79400000D03*
X109400000Y-79400000D03*
%TD*%
D10*
%TO.C,R217*%
X106900000Y-63175000D03*
X106900000Y-64825000D03*
%TD*%
M02*
